<mxfile host="app.diagrams.net" modified="2024-04-07T11:21:46.248Z" agent="Mozilla/5.0 (Windows NT 10.0; Win64; x64; rv:124.0) Gecko/20100101 Firefox/124.0" etag="VklkYx9WqdF-FPY5nOd9" version="24.2.2" type="device">
  <diagram name="Page-1" id="pRmrdv--tEtla7eVdAjH">
    <mxGraphModel dx="1590" dy="-757" grid="1" gridSize="10" guides="1" tooltips="1" connect="1" arrows="1" fold="1" page="1" pageScale="1" pageWidth="1100" pageHeight="1700" math="0" shadow="0">
      <root>
        <mxCell id="0" />
        <mxCell id="1" parent="0" />
        <mxCell id="4Ed66H_ixb7A9p733Kqp-58" value="" style="rounded=1;whiteSpace=wrap;html=1;" parent="1" vertex="1">
          <mxGeometry x="270" y="2550" width="450" height="270" as="geometry" />
        </mxCell>
        <mxCell id="7I7FSgPWb7zvWcSzZrZ3-24" style="edgeStyle=orthogonalEdgeStyle;rounded=0;orthogonalLoop=1;jettySize=auto;html=1;exitX=1;exitY=0.5;exitDx=0;exitDy=0;endArrow=none;endFill=0;" edge="1" parent="1" source="4Ed66H_ixb7A9p733Kqp-61">
          <mxGeometry relative="1" as="geometry">
            <mxPoint x="670" y="2775.666666666667" as="targetPoint" />
          </mxGeometry>
        </mxCell>
        <mxCell id="4Ed66H_ixb7A9p733Kqp-61" value="Modify scores" style="rounded=0;whiteSpace=wrap;html=1;" parent="1" vertex="1">
          <mxGeometry x="488" y="2760" width="104" height="32" as="geometry" />
        </mxCell>
        <mxCell id="4Ed66H_ixb7A9p733Kqp-62" value="Welcome Admin" style="text;html=1;align=center;verticalAlign=middle;whiteSpace=wrap;rounded=0;" parent="1" vertex="1">
          <mxGeometry x="451" y="2560" width="88" height="30" as="geometry" />
        </mxCell>
        <mxCell id="4Ed66H_ixb7A9p733Kqp-63" value="Admin.js" style="text;html=1;align=center;verticalAlign=middle;whiteSpace=wrap;rounded=0;" parent="1" vertex="1">
          <mxGeometry x="465" y="2520" width="60" height="30" as="geometry" />
        </mxCell>
        <mxCell id="4Ed66H_ixb7A9p733Kqp-182" style="edgeStyle=orthogonalEdgeStyle;rounded=0;orthogonalLoop=1;jettySize=auto;html=1;exitX=0.25;exitY=0;exitDx=0;exitDy=0;" parent="1" source="4Ed66H_ixb7A9p733Kqp-65" edge="1">
          <mxGeometry relative="1" as="geometry">
            <mxPoint x="404.30769230769215" y="2830" as="targetPoint" />
          </mxGeometry>
        </mxCell>
        <mxCell id="7I7FSgPWb7zvWcSzZrZ3-41" style="edgeStyle=orthogonalEdgeStyle;rounded=0;orthogonalLoop=1;jettySize=auto;html=1;exitX=0.5;exitY=0;exitDx=0;exitDy=0;" edge="1" parent="1" source="4Ed66H_ixb7A9p733Kqp-65">
          <mxGeometry relative="1" as="geometry">
            <mxPoint x="589.3333333333333" y="2830" as="targetPoint" />
          </mxGeometry>
        </mxCell>
        <mxCell id="4Ed66H_ixb7A9p733Kqp-65" value="" style="rounded=1;whiteSpace=wrap;html=1;" parent="1" vertex="1">
          <mxGeometry x="219.5" y="2880" width="740" height="140" as="geometry" />
        </mxCell>
        <mxCell id="4Ed66H_ixb7A9p733Kqp-69" value="Admin.php" style="text;html=1;align=center;verticalAlign=middle;whiteSpace=wrap;rounded=0;" parent="1" vertex="1">
          <mxGeometry x="691" y="2850" width="96" height="30" as="geometry" />
        </mxCell>
        <mxCell id="4Ed66H_ixb7A9p733Kqp-81" value="QUESTIONS table" style="text;html=1;align=center;verticalAlign=middle;whiteSpace=wrap;rounded=0;" parent="1" vertex="1">
          <mxGeometry x="150" y="3200" width="120" height="30" as="geometry" />
        </mxCell>
        <mxCell id="4Ed66H_ixb7A9p733Kqp-181" style="edgeStyle=orthogonalEdgeStyle;rounded=0;orthogonalLoop=1;jettySize=auto;html=1;exitX=0.75;exitY=0;exitDx=0;exitDy=0;" parent="1" source="4Ed66H_ixb7A9p733Kqp-97" edge="1">
          <mxGeometry relative="1" as="geometry">
            <mxPoint x="362.7692307692307" y="3310" as="targetPoint" />
          </mxGeometry>
        </mxCell>
        <mxCell id="4Ed66H_ixb7A9p733Kqp-97" value="" style="shape=image;verticalLabelPosition=bottom;labelBackgroundColor=default;verticalAlign=top;aspect=fixed;imageAspect=0;image=data:image/png,iVBORw0KGgoAAAANSUhEUgAAAegAAABKCAYAAABw88ddAAAgAElEQVR4Xu2dCViNyx/Hv5EsWduU5aJsRbZSlkqWEskWIRLJFcqWPZQtlwhRlpRUliSKFrqhjVQkrbJzRVFZiyT955zWQ8upc06d+s/7PPd5rtPMb2a+v3nnM/Obed9XoIBcKOf69u0bmjdvXt6f8PPnT+bvgoKC5f69sryMDOnp6Wjfvn2189JyWSWjOrPqQftVqR6c3CtV5a1M56rycjKu0HKpf2vCnKr6JD/3KwEK6MJOz8nAQUFJQclvE86qBiVO+js/D2j/bwM4bS/n4zc/92cK6CK2cDJgUUBTQFNAF/YBOjFgP8pVlVb8DA46MaidiYFATk5OuSHucuPPXPoxMzMToqKiXLLGvhlaLvtacZKS6syJeuznpTqzrxUnKanOnKjHfl6q859a0RU0XUH/0SuqmtnTiAH/Rww48WFVeenKju4F0xV0La2g6R4050JTYPE/sP7ftjCqgiwnelBAU0BTQHPODXbuI7qCpitouoJugE8lUEDTveCaPoXDDjgooOsQ0G/evMH27dsrfIzq169fzNo1atSo3A0GxuBQkQMZGci+N1q0aFHtvP+P5f748QOMJ+HKu9mozqxdiNf9irHqbNy4MYSEhFgK5nW5Fe3iVVYuJ/dKVXn5oVxG38/NzYWwsDBTnqrqXNm9UlVefmjv732gqjrT9pYqVpVW/OhfBn9btmyJclfQ8fHxmDp1KiwsLNjf4acpeaKAv78/Pnz4gNmzZ/PEPjXKvgKOjo6QlZWFiooK+5loSp4oEBISgoSEBCxdupQn9qlRqkBdKbB27Vo8ePAA4uLiFQPaxMQEt27dqqs60nKLFNi9ezdSU1NhZ2dHNaljBQwMDDB69GjMmzevjmtCiz9+/DgCAwPh6ekJAQEBKghVoMEoICMjg/Dw8EJA5+Xl/fGYFWMFbWpqSgHNBy6ngOYDJxRVgQKaf3xBAc0/vqA14a4CDECHhoZCTEyMApq70nLfGgU09zWtqUUK6Joqx/18FNDc15Ra5A8FWABd3mNWjBU0DXHzh7MooPnDD4xaUEDzjy8ooPnHF7Qm3FWAJcRNAc1dcbltjQKa24rW3B4FdM2143ZOCmhuK0rt8YsCFND84gk26kEBzYZItZSEArqWhGajGApoNkSiSeqlAhTQ9chtFND84ywKaP7xBQU0//iC1oS7ClBAc1dPnlqjgOapvNUyTgFdLbl4mpgCmqfyUuN1qAAFdB2KX92iKaCrqxjv0lNA807b6lqmgK6uYjR9fVGABdDlfW4yMTERy5cvp89B84FHKaD5wAlFVaCA5h9fUEDzjy9oTbirAAPQwcHBhc9B194p7jxcOrwN2w6eQnaTlvj68Qs0526AnfUStCav9NbtJQBdzwLo9+NuYxeriEDWKhnLxrSvnuH0IIjIWiE5KxwsOePOQEDdAWm//06sB9kthlWyLMKPLKteWZWk5idAM9qnueEqghLiMapby6Jap0NFRJa0OwvVlZhrItWSIb4DdF46rE0XY4+bLz59/wWpHgrYaHMI2iMHo1srNt+uRfq5qJwVEjPCcX6JCpJJnz+ybEwtKVrzYiiga65dYc449G48EodS30NDsvxvKlRYAukzYnJbkfA+FJKNWPvZNNnGmHIuD/r9G4HNHshpQxpc/joJcXtYToNVWGtcu3wcf7UUREHue5iMV8GrAesRsG8+zwBdY+9RQP8hHRPQK46h22gzJPx7EM2ZKSiga9zHOMx4euMk7IhujwCPg+jargnuXnXAhKnWkJ6zHrcdV1Tbut1iCuhqi1ZvM/AG0PVWDj6qeO0D+msi5CSHYPu9dwTEhcM64/r46A7OPMjBkumjmID+0W82Uh7cZX4cwnC7K/aajAXIKmGjoT5cwp6jMfIxccV+HDafindBdlAgq7lBwmlIevIagtJjYT5VEgeP+SA1/Qs2ufjBfOIglK6gJXD5sDmW7/JAo8a/IDFoBrzOHoD45wT8Pc8INx5/Qv6X9+g8dB68PW3RPoudFXQeTlrMg8XJULST6olpKlK4/kOpQa+gl17NxV8pFzBgSxBsDJVYAS3xBQeWz4OtdwyaCuTie1tZeFzyxjDpVsS/bSA8QhuRIdF49+4HNu7egmBXOyQ+TYXEEGMEXvwHbQUK4LV3CVbY+qBpk0boomKIMy470b4Jf9w9/LaCtibhpgQ5S5zZpFsi0BVnG8T/7I6Nf08BA7hXs3oiLe4WXqe9x9jlWyGZ4A2f2BR8adYTfteuYZBgSLkr6GcRXpgzfwXS85uioGUXOLqdwei+1YxC8dBtdAXNqbilgO6XYA/FTYFQbJqKxP/e4VsrWXheuogh5L5NT7iBhYuWIO5dPnJ/CGOv23no93oF8R4m0BjZEfeS/8OHby1x+Lw39IZKYzpdQXPqGNQ6oL/cckTriaeQlvlbuLhMUxiAzp/iikv/GOBrogc6DNmLxC/RuLlWG86ZoxHktAqCOanQUewPrUMPML3AC5LaNriWnARNaUHM6COG10O3I/zEKrzys0FfEtb+Eu1cAmh9YV/0mn0aUbFBkGmdD0s9ZbxX3Q2lVDtcyJ8KX5v55Jt1nzFNviMGW8di3ZDnVYa4s/33QmlNOBJiLpFQzzvMHDIAr5U2NGxAh0giYIkIBugdxY3EWChKZpWEuLtF74X6zkQk3T6JVgS2h5aow7eFAa7tNWZOwPJ13eFtPRvBDmYYufE6YlIeYKBENsZLS0Hv/HuovD8KlfVhuHfHGx1b/MQeQ3VEdTHDhW0zOe703DDAb4B+FXEWw8Yao/voaRg9XBFjxk3GkD6dS0KLDEDbxMsiMcwRTZI9Id53NrYFJGPVWBnYzB+M5L5WcJ7T9E9AL+wKZWlVmPpEw0CpEx767YHq6ig8SfJEGz75MAUFNKc9mhXQUhNs4E+2rrS6t4G9qTr8WxrCd9cMzFPsii5rrmHrjIFIDbHHgCU38fTGIsh01MEGvwSs0uqOYHtTGPm3xFPfXdCTE6Qhbg5dU+uATierXUmjAGS/CkD5X4Eu3IMefyobC4YwUsShl8B0eBbEYXN3YYjNPoaxfVoxm33D3Rove5vBRTMb3dbcRc59V+bvW3V7ESOesGRsYjP2iad7oSDFqwTQHaNW4viHUbhmY/ynfAU/8ebFU8TejYCt1WqoWtyA5eh3VQL6srkm/m2zAOe3zGDa9N+3ANZP+jd4QKd4bcEBY1U4Ez1jvJZC/bc96C/vXuF+3H2cs9uFuI76TD0Y/h3n8gXGQ1uC0R8Y5wKywo8wdSuOcvw6Pxken5SxUncY8/f0aB+svyGI7HunOOzy3MnOb4BmtOr7x5c46+qBKNJ3L/kEoN2A6ZizZDEsZgxjrqDvdl0D13WTmPdU70bTcT7/IfoRyJ7ZqgsvkP9MJP4A9OZeCeiywANutitRuDuZjnUG63Ew+SsmSvPHziIFNKd9mhXQ0uvvkgWNCxqRvhF0aAm2JvVGqPVAdOq8HCGf7qF74zJ+Z+xBy6xH1OdoSJM96PSgQ5DbmoT3oQ4U0Jy6heSvdUCTJS1adV+FW19S0K9pmRZkPoSDdwrmLpgEQ5ZDYsWADsNS0fZoP8MK8mWia50VtaDdNJJlkK8K0C2uzUUAmRV6WeqzSBh39TB05ljhL+XRGDZAFgkBx6G0+ipbgPYgA2B8j01wXKXFtBnjtgnLbkv8HwDaEgUfH5LVmgK07bwRuHAG85CYcvZtjB83BVlt+0FdZTDyX5DogsS0EkAXHwKsCNAfjo6Ab7YSJgyRKfWRSG9YmhVOgOr64i9AZ8Jx10mMMl0NmcK5Kwp+fsIKHWW43ADCPyXj5krVMoe+2Af0EvFbGLLeF2uNJrBIPtXEkuU+rEt/UEBzqj4roIsBywJo8y5opbwXj8lhMKmyh8F+OyRGAc2pL1jz1z6gkYuFw7qgtbEP9hkpl9TGd888GPs2x+vQI5hRLqBTYD9cBCImQdhlMIiZL+KKM9LaDcGw70HVAnS/RzuwNEQciR5bmHZ8ds+D44cRELm2FD033ccmxgoceZjdvx16rrvNFqDv71+IzXE9EX1yDdOmy7oJOPFZ8/8C0Iz2JnrvgKLJSbKP/wHOz7PwwmYszuZPwfX9Jkw9jq3UgNt3HbYBLRpsgsPpaohwXMnM/yb2OjwS8rFyjiZ374AaWuMvQOdgBtkT7rQqiOWeOmgyHNbO6bj64THCVtcM0PtGpENU4zAevb6NzkJk5fTzDQ7beGCC2Up0LT68X0MNuZWNAppTJdkA9P4xkBcbjUPPXmOkRGNyaCgCMj1W4FrsDij324bEolPcFNCc+qISQKelpf3xPejk5GRYWFhw9Tno9LirGDPeEIqzVmDM4K54e/86djmFwTUoFNr92v92irt4BZ0Coat2UFtwHKstVqFd3kts3+GCo8ExUHh7ulqAXqb0CWoD1dBjzgaM6PgTu3bYY39gDKKsVHHl81CsMFBBwjVPOF+9jbk7fGGjk11liFsiMxHDFEei/wIrKLRKxw6LHehssP//BtBk5IblNAVs8/oP/6ZlQfCSGXQPxOOfjYvIdsYtHHe4gKZjVuK+6zoW/1a0gl4s+xIKShMw1NgCal2a4NiebVDecIkcRhvK3Tughtb4C9DAwxtHoTpuFQZMmYNhslJ4mxAGzzsfMWreGnhtn8UMcZc+NsX+CvrIshFkwqqIwB9DYKqvhvsXjyEwRxnRvjZowR8RblBA17ATl2RjA9DkrIgn4+mb4EYw/3sSIs8dRFrf5fBZIQnxPqWPWVFAc+qLPwHt7e0NUVHR2nwOmgznX1Nx2uUcXmR+RbM2nTBr/hz81aYw5u1xaCvk9IpDaOk4tPU89CzNmM8gv00KhevFYPwQaIFx+kZQ7CaCr88iYR+cgXVG2sz8wR6HQAxAnRELT4/H1vNJzNCon/NuiKkvJYdeWiLv82u4nHDD25xGGDtzIZS7i6AgJw0njp7Em+xfUNDQg0xeHKKyu8CQPD+92z4YS9cZgWXRwLDtEg3zot9zs57D0ek0PqIthpEDZi/yO8BIuzRKwKnr+Ok56GeRfvB7IQyzGeolzcojeuw+6g9983WQbpmHQPdjiHiahY59VKCn2AYH/Z9j05JpOF/Gv7/7rqyPGHqecD6DjJwC9FOfiilqcpxKyLX8/AZoRsO+pibjlIc3Mr78QEtxGRiQJx4khAt3jiP9nJEhpg5tZWnyL9Z7Kj7YA0mQwwxF4ZJ+nlg2fUEurp05gTtPMtC6Yz/8bTQFRWa5picnhiigOVGPkTcdh7edwviVayDxPgoOZCxdM18bjDOAzyL9EZwhivnjlcm/CxAZ4I5rUc8gITcCC6epo3H2M+xxCMbiNfPJYVAB5lhcmH88PO23Q3baZshL8slMjlOZ6iB/HYS466CVDaRIfgJ0A5G0xs3gR0DXuDH1PCMFdD13IK1+hQpQQNejzkEBzT/OooDmH19QQPOPL2hNuKsABTR39eSpNQponspbLeMU0NWSi6eJKaB5Ki81XocKUEDXofjVLZoCurqK8S49BTTvtK2uZQro6ipG09cXBSig64unSD0poPnHWRTQ/OMLCmj+8QWtCXcVoJ+b5K6ePLVGAc1TeatlnAK6WnLxNDEFNE/lpcbrUIE6+txkHba4HhdNAc0/zqOA5h9fUEDzjy9oTbirAA1xc1dPnlqjgOapvNUyTgFdLbl4mpgCmqfyUuN1qAAFdB2KX92iKaCrqxjv0lNA807b6lqmgK6uYjR9fVGgSkDHxMRgzpw52Lt3b31pU4Otp6enJzIyMrB48eIG28b60jAbGxv0798fmpr88W7w+qIbL+oZEBCAe/fuYdOmTbwwT21SBepMAWNjY0RFRUFSUrL8V31ev34dU6ZMgby8fJ1VkhZcqEBqaip+/PiBbt26UUnqWIHHjx+jTZs2kJCQqOOa0OLT09Px8eNH9OrF+MgNvagCDUcBxsQzLi4O0tLStfsu7oYjYe21hIa4a0/rqkqiIe6qFKq9v9MQd+1pTUuqXQVYQtx5eXl/fM0qPj4epqamXP2aVe02seGURgHNP76kgOYfX1BA848vaE24qwAD0KGhoRATE4MABTR3xeW2NQpobitac3sU0DXXjts5KaC5rSi1xy8KsAC6gFy/V4yxgjYxMaEraD7wGAU0HzihqAoU0PzjCwpo/vEFrQl3FajyFDcFNHcF58QaBTQn6nE3LwU0d/XkxBoFNCfq0bz8rAAFND9757e6UUDzj7MooPnHFxTQ/OMLWhPuKkABzV09eWqNApqn8lbLOAV0teTiaWIKaJ7KS43XoQIU0HUofnWLpoCurmK8S08BzTttq2uZArq6itH09UUBCuj64ilSTwpo/nEWBTT/+IICmn98QWvCXQXo5ya5qydPrVFA81TeahmngK6WXDxNTAHNU3mp8TpUoOF/bvJXNi45H0dc6ld0HzIO+mMVIVCHgnNSdHUA/TjiMs4Ep2PlhoVozUGhb+PvILfbEHRtWb6Rr88iYR+cgXVG2tUqJffTK5x1PY+XWdloLdkDs+fMhIRwI2IjHYe2noeepRna/2Yx0s8ZGWLq0FaWZrOsim3FB3sgCXKYoV6zV9jWBqDfPY7C6YuB+Py9AF3k1TBrygg0ZXTe9HhsdYmG+TojlOsW0ucDzrkj+nEaCtCINW+RcvE3PfC541gM79m2Ci0LkBByCZfDEvATghg0ahq0h/UsuYf8TjlCQX8hJJuUminI/YRLZ10R/zILzVpLYursOeghIcymz6qfjB8AzbgPbP1eYLPpDAgwfER84HvGFTFP30GwpSgmTjdA37/alDTuZ2osTtz5gkW6qkwtXyWE4LxPKLLzBdBjsCZmjlMiniu8st8mwdHtIj7lCmDIuFkYq8jo/19xco8tFOduhrxk6YgW6XcSiaRfz9dWLvLRL0QFeCAw+hEKGgtDbeJ0jJDvwrTLSJshNqLkfmL4zdvDHfHPM0idxaGrb4BeUq1YHBJ05jA6jl0KWVFSJqOfeZxG9KO3aCwswmyjfJfC/uR/cg9ERyyGsjRrfsbf3iaFwu1SMHLRAlqz5mOwtGhJGenxNxHxuSMmDe+JHNLu46cuIltAGFMMFqJPB0Zv/wrXE36YuUAPQkyhC6/rpF4dNEm9xMof3SP9T+JFC0XojZAv9A/DEsNnFxKxcs18tCI/vk0Kw6mLNyEg3AEGC+ejQ8vG1e+MXM7RwEPc37B2wmAktNeF/ohOOGVrBXmz87BdMJzLMtaOOfYBXYDlo7vBI+k7dl5MwIKhYjWs4DuoivaGZVIWxvxOyyKL6UF2kLVKRlb4EbbLSAg8hglG+zDLdCkGSovh0a3LsLvyAr7BwVD66zF6CUyHZ0EK+v1m0W6xCpJlrXBk2Rg2y6oY0Ge26sIL5D9LfTZtsSbjLaAL4LnDAKs938Bs0Wx0bFmA657Hcee7EkICD0M0/gwaqTvgTWY4yozNzAp+eX4H47WmodM4Y4xTlkOTvM+secngVJAZj+Ham3Ap3AftBStpfsEXWM7UhOfbjlg6dyJa4Qt8Th3Gu8768Du9Ga2JrQfnNmNHsjzOb9VjAiE9IRDjdYwwaKYp1AdK4/2jW7Cxu4L9V25CT7kQDNy++AHQ6UGHIGUajPzkCxDIfw9DNWXcbzoYk9X7EMAmwtktGPv/jYbhsC5MnYKPLINXwVTYLR4Ox1VTsC+iERbPnwrxprm47HoYLyT0cPPsJgi8DEG/oYaYtmoDZNvmwm6nNeYcC8XysW2hJioFkxv50O8vUDJhOrREFecLpiHUYRkh0AvM1R6H1I5a0B+nTDpHKhxtbTB4tTsOmWjg8FJVJPXeAgczDXx9fhuaY3XRUcMIE1X7k6RxsN/vjJm2F7BZb1gR1DIwSl4PHnHX0exFJLTHTUdHLSPSz/qQ9Pdha+OG1e5XYaLRF0tVxdB7SzzMNKRYFkQvgh0x1NABqzYsQ9vcF9hp7YZjoTHQ7NWWvGs6EzNVJmClVyiUmiRBcYA2Rq3Ygp4Cr7Dj4GVcvHMXClJC8Niih6S+G2E1fUBpvfqResVeh3ij8gF9aIkaQtovgucWfZKnME369UPooHcer9+HQCjeBwMmbMaKzWsg8OomDl7+gjt3PSElVDxN4navZc9egwZ0Rtgx9DGPxIsoZzQneqTGBuHyk6ZYPE2VPXX4LBW7gP6Zeg1S/bbCeoMsjsb3xL1T60pbQma9F52OIf5NNktEITfrOU44n0Hmd0GoT50LNTkpBHv8A8P52zBi6TrMHz8Sd558xIaFEwtt/UzFgV0+GKP8E2rbSgGdFHoJF4Pj0Ey0O4yM9SHCXPKVub49IRBWhInvQxgpS5b8wd5sDIJaz8WlnQOYgLZLdESM100ItpPBgoWzmXbKApox27/g6oSk39rh57wbQl2UcedWGFSn6iDeK6xkNZ71/C6cTvtDuKca2iQfwsViQNcgysJLQGdEnYK0zmHcexKFHq2K9Cv4iFkK8lDaeRMrO0ZVAOgCrNXugTS1/XBdp1Mqetm847rDfeMkRP+1GgdNKr8PrtkuwGLfpogNckDr4nHq12fMV5FDCwN32C9WJ7TPwDhZVWwNS4SSeC7mEwiLLLqMfUZDSsoPtl+GRUGt8PDizpLVCzdvLX4D9Kfw4xDR98LHl9eIboX+87UxwuqITkj22soEhMWkAVCyjUafFDsMXn4dSYl+BAZFvs5LhYbsIMxxT4R4xAbsfzEIgQdMmPnCHc2Jlm2RcG4h1MQ6VApot/U6OPxWFXdOrUWjIih9TPKE/Bg73HgWioBVakhmAloFC4dLQ0j/DOyXjizx0edHAZAbvBBuic8wspMQvsa4Y8zBVES4rMF6nV54q7oPp9bqlAAvyXMbxtil4mnoUZiriZcL6AMLh+L5oH9wwGQEsxxHc00EtV2Ac5v0cP/MJqyL6kzaugi3nddhVbgYIpzXMOu+eXIPfNc+hT3Gw4DMCMip7URI/BVINBYoqddtF0M42ARAU1sGF8kKvXFbaSz4m4wdRNeqAO2/fiLCxYzhvGYSqVc+JvdoCu1TH2A8tDVP+iy7/b9BA9r7HwO4ZI/BqoE/cDM+DfIjdTFVTY5dbfguHbuA9tqhjwOvhyLUqi8key3Gv/89RD9mnPszFqr0R2qvuUURhW0YZO6JnWOFoTJEC4pG66HUPg/7dxzEinNhUCy4DV1NY0yzdcaiMR2g3HcurqQ9gwKx9cp/H4ba/oeY9dIlK+hbzqswyy4RFivmIuu+F5yi2iDy9kkwomHF1xPvfyC3LgpfUi6iabkKxxFAK0Bo1GSsNJqMO6cP4IHkTEQ6m5cCekk/zFVVRoZcYTvOHdoFkekH4UoGi8UqIvDLVYHVEh30UZHF3J4LmKtx6SdBkB+2APO3bIHYxxg4nQ9CV11LsoKeiFVkdZEoPglzx3aH15HdaDN5P06uHl+p/3kJaMagdSpHB+FHzMqvQ1wFK+jPt9G5nQ5OpmZgzO9L62JLBWkY0WEQtsalQl1cAEF2i6Gx/Ohv5fRE7K9k2AxqhR7rI2E5oy/L32PcNkLdLg2fyMSXMcieMNdCRIdlODHpB1r2WYfbnx6if7Pa20jiN0Dnp95A596GMD18FEtnaaFt09/CFD+fYYjiSvx73xsOcwchsttqeG2dzRYITpGJl+PHMQg7OqMKQM+D1l+imOD8GqYa5FOF5fQkxmqbsYK2H0+2mfpZ4E5mAvo2Z01pMakH3pIJn9MqbVyxmYc7Usuwc2IuuohOhNN/76AhVf4Kc0kFK2jWahRgnU4PfBxtj6PLNWA2shPkLGOxeKQES31fxwZCW3surAIfYnIfstImRlZrdYWUWTBWje9K6mVYWK85TSDXXBWtVDWwyHAyIs/a4UF7PUQ4mZOJx4hKV9BSjUpmoIgNPIIJc0/g6sN76NuWrqB5BkJGB9x75S2Gz1oE7d7COGazHSqbfGA9W4lnZfLSMHuA/kxmfx2g5fwCJqqiWKX5F3J0TuIoWaF+uO2IzsaBeE9m0YyIwpvYG7j8tAnEk4/A9rUybh1dzqx+xAlzGPo1x6NLZlARkYVVcmGIey25GZoaXMb2Wf2wb4Ey0lUOwbzznSJAb8doqa4wupqG2f0Ze0V5mDtIDAr/JGO5ZocSWRhAML7WFi/8dlUgFQPQw/DP44+Y0l0QudEuaDbnCgpSvEoAvabLPSjseIh30SfB2PrMex0Ayd4EDJlxODBaBK3m+2PPAsYKjmGrMFx+b+14eAnowXf3PGa5O/T74X6v9Tg26gu6LriKtEeXmPu5ec98IKa4B8lZt1Ba6z+ryktAb9XthZdDbeG8uoJ9/YoAzfh92H48+xKNrhXwMZekaT3BDVkvAyBcKUPTyfaGFP4OzIWBQpkNZiJFzh0ntNQ+iTcZYSTELoBEj23Qcf+G28ul0MH4GnKe+6JZmf1BXt4TDNv8BmjGSjc20BUbt+wge7/P0bXPMEybY4A1y4wg2qwRMoKPQM+LbFuQe2GpmhjaGAXAep5SlYB+GuqEoRO341TEfRK1+MH0T3jWH29nxvBFBxB2ZCRkBYdj79NPmNC1fMgUA9pSLhkdTK7j+2Nvln1dhrbO68bj5GctEjI3I9tm/TDFIw4j355D4+H78eRTJLpVEFJmB9ChTisxcXsUImLCICucANk2OnDOeI6hLUvre2anITYf9YeQjBZ8Ljqhp4gQszud3z4D7jnj4GNtSOrVn9QrFiPFiY3GKtiZnIEpPYXwI/oUifRcQR4Z7+xNR2D50TD88TLrdsNJPw5FMaB3GqrgqH8cZLTWwMtpE0SLoxq87sQV2G/QK+ijK0djd4oCnvnvKTyI4bcXfayS8CXauY7k5qxYdgCdQSDcQd0KSy3+BuO4xuPbPvB73xdvYlwRe2IN5gW0RIqXJUtFts+Qw/6QbEiKFB7k+ZmdhcfNhhMoOrAA+p7reuj7NEGKx0IodxoJh0dP0SmqaA/aZwYkxMailbkkyH8AAA2nSURBVKxMyco44/VT6O7wY9kzjiB1GOf0CR8jjlcC6DJ70AQoAtO9WADN2D22TOpdMqFgHCxTEemMlRE/ELRAhDlhWMbcNC8F9CUCvbzJZ7HDYBCz3Mt7DHHq21iYiUVg7AYPyHQq3qfPxdPkD/BLq3jfnZGfl4DePXcgIrqYw3v7nPI1qgjQT31I+N4c4d8fY2CT8un71Gc3Btu8QCY5M8BI8SzSD25X7/5WjghMLA2g30EEMzw+4G/V0sNNjISMcwdShr74+JqEcAmMGP/utOwWspw00Ga8E/7Luo2O/+eALhY0LzsTNwMuw8l+HxJa6yDW25qEcyfjjZIt1k6SwTqtzvio5Yhjy7UqBXSsvwMmzNuNnZ6BmDuiF/Fd4QSq4j3oCVBo1RMrQ79hziChSlfQ1gOfQmzmRWQSf7b9zW8MiPs2N8BVK0UM1DiI6AgXNHl2BS1JPwv9loJBFezRFgO6X5YXQh5mMuXoPWIK9NT7kboUIIDskRvujoBnYCBG9BIBnl5GSyUbPH7PgOXvffcXDi/WgEuOBqJc1jFD3tcPLcGycCnEnxgPBQ07EqlzgVCjeAJoPZzLS0J/xoo47iwa63mVALqyPejSFTSpKNnGWaw5CDljbOFCIhbFe9acjd41y92gAe1P9tA2xvRArPt6pjqM1VhzA1/8enihZmrVcS52AH2I7Cu6pfYkpxVli2qbjSNW1tj4byqG/ncEWie/4FXAnkI9Xt2DfUgG8q9bIL73Zriun/RbCxngK11B4/N99JAxxDEnI5g4v8cj753MwZl5SCxwHrq01MW5z6/JDLhioXIfXYSYghXuviPwZCzji66w46uw5HobxHtMYT0kVg6g9YX8sCREFPHkEA3zKniCAcJDYfvqPTwnlw9of4MBeD1kPzkYM5KZxWObHjlMMxlrOz+ArscvvL5mUy3v8hLQ4cdXQM+jAKnXD7IMrNYGSnijvAOH1TJQ/iGxTIzp2BHTzv1HoifiLO0pzruy8302AW0Gx1n9Sb/YBA/L6Sy2zmzSxb7/lHCXnG1gHgwrAvSPmO0YKKGIzVFp0O3doiRPRthx9F16HckPzqEdD8DNbyvo05ZT4Zg5CsGHTUsG94L//NFOhkR5cmOwe+hgLPv3PgGoAC5az8HWhN6IPW1RBgQFMB/XG63numPLzMGIIAfxJpp7w8U3ABMGdSrStSpALyPRs074NfUs2e9VK4U/gapyTw1sC3mKlL2jCvegjTtjgKQyLCJeY3qfVqV9jpxd0JXrAqXdMZhW4IVVkVLw3jmH2MqCRqdOmHrmJUzUSsPR38i2VU8Ne4SQ7aS9owv3oP8EtDzObZ4Oc5/P8PW/hEGdik73/wbo+0Fn8KLpQExWlWXW5+nlPVC2eY53IQ5oRABeDOjLs4SwKqpDUb1qDuiEc4fQbOBsqMiSzzqS8hgTeJvnCgghkYPi/ftqDRBcSswC6LS0tD/iJcnJybCwsKiXX7P69sQfXYasxpUHd6HcsTlOriH7c19JuOaIKZfkq10zVQI6l+wPS/bH2vC3mNGnlJJ7jZTgI2SA0K2D8JecAVyjSDhIphU5SDQZrt/Gw04tDcO3RCL2ji+6kKO5buunkJC3Eu67m0GzoxSW3/4K7aIDuFZ6cvBKEYLuxtOwmtGnFNDhh7B0ZBd8GmMPN4vJKPj8lDzOoYC57ilYqFr2CHgBrPT6I0x4Ni46rkUbQQF8fhkFTTUNaO0LhdU0gSoBfWBCHjorrcCFyGioybTGbccV0HHIwMv77lhD9qDLW0Hj3BaM2/cIMbfPQeJXGqYMkiWza3t4GHdAF9nZsL8di8l9xfH0mi0U/r6KlGeBaF/JUxa8BDS+vcDI3gpQtLyA3UYjmY/bJP5rD/Vpe+AZmwz1L94VAJqcDnZYirknU3HV9xzk2jdjdtCyeVVyrkB4nAsbIW7g48OrGKC2CBanL2OhRn+mrThyAl9ntjU5eRsLLdl2zN/uu22C7vl8MojuInupetgcJgw/L0dItxUki5GX5NHGEfg1di88rKbx5BFHfgN0JpmI9FRdh/VHT2CJ3hg0/fEBzluMYRXVHq8uzsSgGV6Iu27HBHJB5gMM6KMJ/SNXsGZK4aNVUR5W0DS7iOCkWIg8dMKAqQdx6fYtjOheNpJRNaBfhhyFouFJnPe/jFF9yIHMglw4mE7EnqTuSLpxGE5L1UpOcV87YAyTsxnw8XZHf8bjTOTg5PHVs2EdKYr7YSdwbsVoFEzxIPvD4kWn0E1hePI1/C+fRR/J5sT0e5hOHImk7otx4/ASErov/5BYOLlXpx5Mwe1bvujepswN9jMRfVuOh2NRiDvadR107FORGOpGwsw/sF1fDXc6LyZbVIZM3dw3T8b5n5Mx9qsrBKYW1yuuxivofzdMgn0qObfjtgFCP9KhrzYYnRd7YrfhkCq3HnhJAQagvb29ISoqSk65N8DPTd65uA+Gy/YiT7AxJOV14H7GAdLFJ2N5qSwPbFcF6LizmzHM+jHex59j7jEXX2k37dFJ5xBi3jzEj+DDmL98F743FoRoTy2c8ThK9PiJMztNsfbwZTRv2hjCMmpwO3MK8u2b4MDfZE/HN5XsyyRCd0ALPLywHbLzziP5fTx6k0LKPmb15dVdLJpvjNCn2cjP/YbJ5gfhsFr3j0GZcTPvXW2GfZ7BEGkjjMzcFjC13IdN8zVJ2tKwNPMxq3JW0IzHrIr9+qtpEzTrpAgHRyeo9mzHPCRWHqD7kT3xkxbzsMklDIKCTfFXhyaQ0NrEfMzqrt8RGC/ZhuxmLfANEjjochq6Qyt/1pqngCbN/vwyGitMl8PvXipaN/sFAdE++OfgIUwd1oOpSaMBs3/bT2Mc7CKHswQKcOUYOQ27wwm5LUTRKO8La15kYHQHeWy8n4rR7as+AJNKDuisXbcJwSlZpE/lQkxWDdt27YHmgI4l/cvBbCTie1rgCDnnwIDAub2rYbHPE41E2uBzZi4mm1pi/6b5aMGjc2P8BmgGQCJ9jpBHiXYiKiWVPH/cHMMnGOCAnS0Kblrj4BsluKxlnBYulPB94k0sW7EaNx9+gHCj72jRdQj2HrDD2IGdsHlqL+y8RJ5hLnM/95xqSe5DkypPcTPqEX3lOFas34HX35sT5n5CH405sDtozdzLLd6DZjxmJUD6TaDbP9i88ygyC4SRm5MDtUkLydsLN6CTcA4mDRgD2+gIyJRsnfyC7/HNzH72vbkIsj99hMacNThovYJ5arr8PegcTO0tCu+U7yztmWLpzrwPV2p0gsz6ezAdQw61FeTAkbzDYat7GJqQuvUlh1Udj2yBZNGe8LJRUuixIQRBa+bCNuo2ZJih9poDWvL7W/KEiiHcw56Tsn9C03g7jmwx+GNPngfDeqUmG3SIu7bF5HV5VQGa1+Uz7Kd47YD+5Sasj27VRsF8VgavAc3L5p7bMg3B4ibMg4McX+QxqzG9VbA7PAkK4lUDn+PyyjHAD4DmRbv+32zGeVjC9KYYQkiEs7J93wJyOFFWdS9CE7yZj1k15IsCuh55t24B/QnHrffB5aQTFp1+AEOlmr78pB4JXklV6zOgC19UsgWXIy6hghcvse2kGPeN2JnSDxe2z+RJ+JqdilBAs6NSPUhT9KKS1d63oFjJZO+0xRQ8lLfEthnFLyqpB22rYRUpoGsoXF1kq1tA58DNdh/ye2lhnvbgumg+X5VZnwHNEJLxqs+vf43HUHIWgZPLz/UEFGYZs7zqkxN7NclLAV0T1fgzD+NVn1Ff/8KEoTIVTPi+ws3JHzOMptd5+Lk2FKSArg2VuVRG3QKaS41oIGbqO6AbiBuYzaCAbkjepG0pqwAFdD3qDxTQ/OMsCmj+8QUFNP/4gtaEuwrQz01yV0+eWqOA5qm81TJOAV0tuXiamAKap/JS43WoQMP/3GQdisvtoimgua1oze1RQNdcO27npIDmtqLUHr8oQEPc/OIJNupBAc2GSLWUhAK6loRmoxgKaDZEoknqpQIU0PXIbRTQ/OMsCmj+8QUFNP/4gtaEuwpQQHNXT55ao4DmqbzVMk4BXS25eJqYApqn8lLjdagAW4AePnw45OXl67CatGiGAqmpqfjx4we6detGBaljBR4/fow2bdpAQkKijmtCi09PT8fHjx/Rq1cvKgZVoEEpcO/ePTx//hzi4uQd6OW9i/v79+9ISEhAs2aFL97//fr58yfzJ0HB3z5KXpSQkb+ivIwkGRkZEBMr/61UleX9fyw3Ozsbv379Qrt2hR8pKHtRnVn14HW/+vDhA4SEhCAsXPQ1nqLieV1uRaNPZeVycq9UlZcfymX0/a9fv5aMI1XVmZNxhR/ay80xuCqtaHtL1a5KK171q+7duzP5KpCXl/fn179J/cjvaNKE9aPtxdXOz89n/m/jxuV/+qeyvIx87969q3AVQsst7RxUZ9ZhifYrVj0qu4846TtV5aXlcucepTrT/lxRNK64b1BAF/UROjHgzqBDJ2DsTyqqGqA5mZBwYruqvBTQ3LlXqM4U0FUCurwQN0O2b9++oXnzsh8wZH/ZX1lehhXG/lH79mW/F1xqm5ZLda5o64T2K9YBrbL7qKrQHCf3GS2XO/doVT6iOlOdy92DpoBmHQirupEoONgHBydgoDqzrzMnfbaqvBQcFBw1mUTTflX9+/d/NAxYht1zVckAAAAASUVORK5CYII=;" parent="1" vertex="1">
          <mxGeometry x="21" y="3360" width="456" height="69.15" as="geometry" />
        </mxCell>
        <mxCell id="4Ed66H_ixb7A9p733Kqp-180" style="edgeStyle=orthogonalEdgeStyle;rounded=0;orthogonalLoop=1;jettySize=auto;html=1;exitX=0.5;exitY=1;exitDx=0;exitDy=0;" parent="1" source="4Ed66H_ixb7A9p733Kqp-98" edge="1">
          <mxGeometry relative="1" as="geometry">
            <mxPoint x="276.6153846153845" y="3350" as="targetPoint" />
          </mxGeometry>
        </mxCell>
        <mxCell id="4Ed66H_ixb7A9p733Kqp-98" value="" style="shape=image;verticalLabelPosition=bottom;labelBackgroundColor=default;verticalAlign=top;aspect=fixed;imageAspect=0;image=data:image/png,iVBORw0KGgoAAAANSUhEUgAAAoEAAABMCAYAAAASum37AAAgAElEQVR4Xu2dBVRVSxuGH+zu7rp2F7agoqKoGNjdgd117boW2IqFCaiIoiAIYmBhd3d7VURRVAT+2YeLv4HE4Zwt6MxaLtdiz8w3887s2c98E8cgRAT+C0FBQSj/EiVKFPanL/8HBwfz8uVLMmbM+MOziNJp++x3t6fo8urVK9X0jMje58+fUfQOr921fSbt6VZPpR1ev35NhgwZfnj/tG2jyNJJez+Og5Fp9rP3KDAwED8/P9Xa70+3p3zWEiZMGO67os2zyPTUNk+lgOGV89OnT7x9+5b06dP/UAelLD9Lp+2z393ex48f8ff3V03PuGTPQEJg6DumNnRKCNQtJP3u0CkhULf9RW09I4MIXU/C/nR72kCZ0id+li4yPbWxFxGw/e5Qpnb94hKUaQP4Mamfgfh4RtkTqHiuwvNEaOvti8zz+DvbU+ru6+urmp4R2dPWuxFROmlP99CieJLC8wzoo/2UPKU93XoC37x5o1r7KYDxJ9vTBsoig8CI9NTGXmQQqHiu0qVLp5on8He2p0DSu3fvVNMzLtkzePr06RcIVGajSmeOHz/+Dx1P+fv79+9Jnjx5uEvFP0sXUZ5/sj2l7gEBAarpKe2F36+17Z+/Qs8PHz6QLFkyVd4/pX7S3o/joLb9RZkUKR8GtdpP2tPt+64PPZU8lRDe9zYie5GliyjPP9WeAviK9zG8908fesYle98sBysDnCJIeHsUFMh78eJFuHvYIkqn7bPf3V5Ey8/aahZZuoj2dCppw2t3pT9o8yyy5XVt8oyoLL+7vcg8x7rWU9rT7fsQ0fKztu9YROn+dHvK9yNBggTh7l/X5llkemqbp1LA8MoZmSf3Z+mUcmrz7He3F9Hys7aaRZQuLtn7BgLD9sbFixfvh5dH+YOyfJk2bdpwnykfoZ+l0/aZtBd+O0g9o98/w+20//0xruipHNRIkyaNau+ftKe790+BBGV5Xa32+9PtKfU3MDAI913R5llkemqbp1LA8MqpjEnKwZDUqVOHuyr3s3Rh5zzDyzOiZ7+7PWXCpCx3q6VnbLIXkXNIgf8vEBjmfv7ZBuXIPC0/O1Ws7X5Bte2peVBDeRmVpWClU2bKlCnc2aqu9fzdD05EVj9Fb2Up4PulF23300VmT5uN/soLqfSNn53S/tlp3YjSafssIs9HZOVU6h72kfrauxxZWX52ejaydD/TLLJ0v5O97/eXRXSQITJdpJ4/7gVVW8/IDk5o20Y/S6cve98fcgjjAeXvap5+jsnBie/rEPbBjmhPZ2ywFzYxUf5XHHThrfR9gcD79+/TpUsXzQfoZzMM5e9Kgp8tFet6ZhJmT/kghpUrTHxtZzuRpVM+fPq2p8zQwpbalP2VCpiEfTR/h/p9XQc19IzMnqJ32IQiVapUJEmS5Bu9I+sTEfXr2FA/pXwxqYOu6xeWnwJYCnArmoftuYmsnFLPHz1XkWmm6K0sJyqHFhSdFU+jkkbp82rpGfaOSXvatd/3XrswPcO2Zun7+6eWPWU8UA5nKBNyZUVR6S8KT/wu9Qv7FqmlZ2T2wlgjR44cLF++PNz9kF8g8OTJk7Rq1Yr58+drXNPfN8rXxn727Ad3lg7+EFFZdJD9D1moYU8h8rt37zJr1iwmT56sOR2slqZq1O9rUWOTPUtLS/r06UOJEiV+gG5t+1Jsqp+2dYgonTb1U9Io/6ZNm0bRokVp1qzZFwiMrIza2IssT13XLzbaUz6uDg4OXLt2jXHjxn3p31LPmLTWj2mlnjHTU+mne/fuxc3NjdmzZ2u+e2p9+8Imp3+SPaW/Pn78mEWLFrF///6f3pGoWQ4+ceIEo0aNwtPTM2atLFNHSYEHDx5gYWGheRnC26MQpUxkpGgpULlyZZYuXUrp0qWjlU5G1k6Bzp07U716dbp166ZdBjJVtBRYvHgxPj4+2NraRiudjCwVUFOB7du3Y2Njg4uLi5pm/1hbymFQZSK+bdu2cK+j++IJPHr0KKNHj9bQogz6V+Dq1at06NABJycnsmfPrn+D0gIVK1bEysqKKlWqSDVUUKBdu3Yarfv166eCNWli3rx5KCs6mzZtkmJIBWKtAkr/XLt2Le7u7rG2jL9Twe7du0fHjh01KwXKr72Fbc0Jq6OybUTjCTx8+DBjx46VEKhS60sIVEnor8xICFRXcwmB6uotIVBdvaU17RSQEKidbtqm+hoCla1nP4VAZQY5bNgwCYHaKh3NdBICoymYDqJLCNSBiNHIQkJgNMTSQVQJgToQUWahdwUkBOpd4m8MKBCorDo6OjpGvBys7AkcPny4hECV2kdCoEpCS0+g+kL/Z1FCoLrSSwhUV29pTTsFJARqp5u2qSQEaqucntNJCNSzwOFkLz2B6mouIVBdvSUEqqu3tKadAhICtdNN21QSArVVTs/pJATqWWAJgeoL/J1FCYHqNoGEQHX1lta0U0BCoHa6aZtKQqC2yuk5nYRAPQssIVB9gSUE/lLNJQT+Uvml8SgqICEwikLpKFqUIVAeDNGR4lHMRkJgFIXSYTS5HKxDMaOQlfQERkEkHUaREKhDMWVWelNAQqDepA034yhD4JEjRxgzZow8GKJS+0gIVEnor8xICFRXcwmB6uotIVBdvaU17RSQEKidbtqmivI9gfqCwONum3E6cFGUPyEmLTpTq2webevyY7qQYK5dvECGv0qS4OlxVu+6SU/L9iTX2sIndq5fS5qyTahRLPM3uVw4uIOrH3NiYVJW69y/TqhvCHx+4xjLVm3BL9CAiiYtaVW/osb8u5ePuPn0PaWK/RWjejy+dYV3iTLwV86MMcrnS+L3z3D2OEvtxvVIppscf8hFnxAY5HuXZctWcvtFAHlKG9OjgxlJRAmCP/tz7uJtChctQdJEP/6uaFSr+t73MdcfvaN08Zi1m2LvX9E3lqzeQYBBclr16k+Z3KmjWoxoxdMrBAa+Yt2yZZy7+5KMecvQo2d70icSv6Ec/JlrFy6QLn8JMqVIEK3yfh056N1LLt58QqFSxTXtGJPw4cUNFi5YxUvS08WyP4UyxTTH8EsjITB8Xd4/u8DC1R40796bAhmTxqQpZVodKKAmBD65doRV9u689ntLiCh78oz56dy9O/kyiMGCt9guXEPhRu0xzJOOU3s3s83rMvVbWPDspAuX3qQlb8pAMpZuQAPDfFGuecDjK9jtu0CLti0Jfnabh+8SUqxAziin13XEKEOg7peDP7JwaAcWHXxOvZqViB/wDA/XQ7SYuJIJHY10U8/3l6hbbyjz3faQ9/lhrLddZcDQbjGAwDeYFS9AwcEuzOtW/psy2gxpyHrfWhxcM1QnZdcnBD7w2ULDlgPJULQKGUUnPr7fm4ZDl7N4RAsc5/Rj67MybJrdPQb1+Ej/5o0o2msRfeoWjEE+/yUN8Wdqp/osOpeZm+e2kSLmOYabg74gMOD5RVo3Mudh4gIUyJqaG6cPkbJyd1zXTSbeeXtqjHDl2J61xItBvfYstGTFnZI4zusZg1zg9fV9mDXvRbYqDcj0/gYeV0LYtGsLZbPoXnV9QWDQu2f0szDjwL/JKJkvCw+vn+JNumrsdV1LlrfnqG8+jPmeeymijPNahrPb5jBq6xP2bJ6rZQ6hyYLePqRz00Y8TVeRvxLdx+dZRrZsW0XeVAljlG94iSUEhi+pm/UA6g9ayLA1B5jduYbOdZcZRk8BNSHQy2YwtfpvoFmTWihTwmd3LnL1bXp2ujtTMacBNrOXUcyiN1WyPaJqiQaU6zyEkp8vMcvhLP0GDSJVwGPSl2lEk6pRn3z/e9iWir1tOHfBm7WDLHhSpA8zetWKnkg6jB3l5WBd3xN4cfc86vdbj9PR45TPGjoa3/BYQs2O1tgfO0+5RHfYf8GXuiaVNY1z8sAeDLKVpdxfmQh685ANG7fzJn5aQdPtyJpC8aAE473bnrNi5l/YsD51yhfAx2E6zQfZ0G7ELHq1rMCLR28pXaGk8DnCRe/d7D97h+zFqtDUWHjvPrzE+8QlUiZPypEjx8lQyFB49Sp8J/Vb2larQP4+m5nSrgx8fo3D2g0EZixGwOl17PKrgJNVX500jz4hcEJrQ7xTtcVzxUBNWc9tn4XpSGfc96xjWf/mHHhTgKULJ5Aq/gd8n77g2p0nlKtYBl9fPwyr1SSlEPCKz35eJcpB1dIFRA4B7Nq8nrsvgqjTsgvp3hylnmlH8tbqwbQxbXl64x5FKtUgi0j4+MpxLvmlpHaJzBw+dY63L/7l4fukdGnfmHiv72K7cRfvEmekTYdWZEgMgeJvlp3Fz+cduUim0m047r4kznkCXQSY9d/qz80jm1B6asCdvZSo3I2ZHkdJ6jKRrstOMstqIVX/Ssqj5/7cu3adbCVEP/V/R+FqQrekCXgkdLv4Min1qpXUtNmBnRu5cP8V5YQXt5KYRFo2q4+nf36Wz5lA8uDnJMlejuK50+D//DbeZx9gXLcm14568e/7D1y59oiGbbqRN40f9qs38O+HZDRo3Z58wlXmMKkD1ldyc9huqsZO77rFiNd4AUssa+ukX3+dib4g8MauWVQf6MzpW95kUwy+v0Wl4tVpae1OzU+7aNp/Gd1mLKFl5QK8fPSIh/evkTpfeTLEf0+iTAUpVSALn17ex+PEdarVroPCY2f3O+F98SH5y9fDtFIWpnRrzmqf98xbakXeBJ/4nDoH5YvkAv8n7D50CeM6tbh3yYfnL/y4du0W5c3aUTZ3CnbbrebOi0CqmbWmtPAuXHaZT4u/D3DqpBOKD6pJmdxUmuDOaPNCOtdbQmA4koa8pVez5jwJTsAbcrNrx1LNJPPV3QtcfhZIfAHpp64+wLCeBRXEt0cJ10/sxf34dTLkLU3rhlU55eWCQa6KlM2fgXsXD3PheRLMapUj4OVdPI9ep45ZXRL53WPdhp28TZyBVu3akEk09sMb57jx4BVPb18hVZEaNKxaXOdtHhczVBMCPZYOZvTOQE64LgqVKvg1veqW43y2nhxdN5zzPqdJly8rR9dMY9CCg4ybNZYLdvM44F+QVfMminb052OSXBTJnZ4Q/0es3+CIn0EaWrTrILjkLe7O3hSvVYdsyRPy9JoPF16loGLiq9QbuZmVCyYwqkNT/HM3YOyARnz+lAgjkxqaceDDs+u4n3lM/XpGxGCBKErN/4sgMJjRzSpzrVAfHGd0/qqgIfSqXZz4TRcxtNg5Go44xqkTdsJzF0LPesVJ1nwNVh1y0KlpE24Y5CZb8GOeJi7Fri0LOLZ+MhNsDlG4SDYO7z/F8GVO5HtsS8tBK2jYYwI9awXR9++DnDzlxFHbKfSe5kDZCsU4f+IMLccK72OrnFQtWpTnWUwwzJ0Eb+9j9J3nwAgLw6/KFwqBBfptY3Kb/IzraMb2a/GpVio3F3y8yGk6Fvtv6hOlNgg3kj4h0KpvfVbezI7zBmvyZgr18Dy8e4d4gW/o27YxPq9zsnjFLLxXDmGlpx8N6talWc0cTLNxxX6PF4XSwKzOtTmeuS2Os9oxuas5jjeCxTIWXHiQlFF96zJ3wgSSFGmO9czGDOowgUlbPagnEu6a2ZFJFwriM6cRRYqVJl7helSpUZfZg8wY0L4V95MVIO27B7xOV5lt6+aS+LkPy5wuUyaHL38vv4Sr+2pSaS9rhCn15Qn0XjMKi+neOO52oHJBDZYI+LjL52TJ2TymM+MczjNysmiLl450mb2Xeg3q0dCsAptnbmCsuyf1sqdg54yOTDiRkzOO07D5uzPzd96mVKH0nLj4mEmzp+HxzwBcnqRh4dzp7F48iNzt1zK5XWluedlgPsQBrzN7+btaDuwfpaNWtSqMGT+CrZN7svdhMgGD77j+JiObHNaR4cNjPiVOS/aMoUvAPU2KkdB8EYv7GetcdX1B4P0DNlRqPYdFzrtoVj50hq5sc3gTlIQDa8fRe4odrcbOwDT7S9p2mknVhqaYt27NaTGOpDEZw9x+dfE9vhnDHgvxOnWEKyKN5XxnypQuwsljFxk8cxb3d/yDzb4nTF6ygPt21rws3YmVo1vDTVcKNJqIl88RNg0zFv3+AQ2Mq9F3/Hgub57A8v3PKZErGedvBbDIbgvl03/g+bv45MuZiefCC2tuMZzha11oWubb7Sa6EF9C4I8qvr7qjFE7a9asm8Wgtp0ZbncIsyJpuLh1OlU6T6Vy/TakDb7BkesJcPHeQ+rL22k7eA55Chfj2vED1Og7l8xXluOdoi07ZndiRofSjPHISOCTvZyzG0fHpY/x2TWFvuaNuJ8kH6k/PeZlqgo4iz5zdm1/jPttpH7d2tRt05vB7XQ/0dJFv1E7DzUh0HPZEIZtfcMRj5Ua+FLCHQ9ravbdgc/lrVhWrEOd+UtBTNbGrDqMaWNTnpzz4uq7dEyZMo3L28YTUG02S7rloX2jRtxNkp+M/nd4kKwyjuu708awg+gPYqUtT2r2zOnK+NP5OTS+HLUH2zJ3fG+GdWnBqwzGjB9swtRx1ljtPo5JgeS4zO3DhP3xObJzEQm13yUUpab7NRAY4ou5oSEl+tsypUPlbwq6dEgTXIPqMaNFYrpNOsI+j1XC8xPCkBZVSdd2JXV8V9LPKZhTzlaadF3rlKZQ13k8sx/MW2MrbAYZc9RuNnvelGZSlxzUqNafld4epDtlg+mYI+x3mkjjKrVpMtuVAaZ/cc9riXAHO+G2axGda1fDbK4Xo8yLYT+hHYuu5uag/XSN9yY0hEJg0WF7GJj/GCVbLGTfpcPCExBEx+qF8C03AmermC3HhVnSJwS+e3KGbm3a4337PTnzFaVZu27069FM42GzndgJ14Da2M3qSP96xbhXZjg7Z3bm/dltVO+3AnsXNwoIPrDu15SLeTowpX58jFvOYsfZIxQUnrvZI/qSq15bjqyYSrG+q+lZ8w3VynZjsoMLtURCN6s+/HM5Px6T6lC4ghmz3K9iXjQFdhM7Yn05B0eF91bs3KJlpSIUH7KJv1uG7rG87bmQllNOsG//ujgHgXx8wbg+7VntdolM2fJiYt6KgZa9yZE6Pi+9RZ+eeJAzHuvYNqEVY71Tc9VzhXCBnsOoXF/+dnOnVtbkuM7vw5zLBXGfWoPSNTqz0O0URnkSiXYawtN8LSj01I4V98uwfXYXujUoT/4uaxhjUYI7h9bRfpwTzgccGV4tHyGNrFg9sjGnNo2j3aLbXBXeSSWMaG7Ii/IjWT262Zfefmb7DEz6bsbl+FEq5tJ+J+3PRiJ9QSAhH1kypgfTbT1Jkzk71es2ZcCAfhTJnoqA+96YWvzNxuP7eLltDPVHn+LidTfSiUJaNjUidYMJTOthzOtT26g31Ba7zUsZ0MCYBgu86FM9O96bZuL8byFa5LzNWPtnuNv/I8aw+jwr05NFQ4R2tz0o13YWOz3c2GBZHddELdi/YjBPj6/DuJsNey8eIoewZTO4CdveV2PP8uEaefatnUKPEVNIVWUIx5xmIl4lnQcJgT9Kun1GNxbd+AvP1aPExL4a1wv3Y8OENlx2nEnNgZs5fP0cBZOG0KZSMSpN20rmw1OZfzYfxx2n4nfZhRlb7lKn8BumbHyE586FDKlVmBXXEnLqxgVO/t2MY9k60SSRFxM9E3NMrLhoxraqJagydguVXqyk5YL73Di5RS/trfMOpFKGvxoC/W65UaPBOFZ5u7Ckpdj/P3cnnXNeoFLj+Xgd3cmhud1Z+EiA/LxejGlTnfhNFtHssx0d1z7nnOCVeDxnSPcJNOhtjlW/6QzY4kzdXKnwXNSf6efysGtwUar1XsLBg85Y92zI24qjmdG9mlh1KUuqNgv4p0s1wTvCI2g2i2mdv+UjfTTBr4HAYF+aGFak1ID1TO5Q6Zt6LR0qIDBQQKDFtxA4tGVNMreeRYoDU/ln31vqVSlEcEg8ju62o1D7uQwq+4oWA8TSTElDevYdTIemNUj472GqCO/c4r37yXrVhmaTTmL7T0s69prMGvcDFE4pTAc8op6RGR1Hz8Zh4UQGLPWktqCZPQuHMu9YAvZsnPXVXq1QCCw1xpM6zxcxyPUzh+xna8q/eWpn7J+L5eAF/XTSTvqEwNACfuCA6x4OH3Bnje1W0hi248CW+Wyd0p4db6qzzaoXlo1rkNp8MtO6GuErBiqTQauw271HA4ELLJtxPX97LDKcZez2D3g7/vNVvf1pb1KXCmK2M7DeJ6pX7MUk+90aCHS37susS/lwG1eDqq1HsMJpP6WEB3F0y4rY30yBSfn8YmE/HgecbCnaaTlOYnathCt7rOg46wyeXrZxDwL/U+bc4b14HzmEw/pV3Agqyh6xjJTrxlpqjN3H+f2bBQi3ZcOrKuxaYCm2PJygTvXBjN/jpoHAPWKbgdWtYiw3T0yzqe5CBweEQ/ZL2CQmLZt8q4q0fenesAL5Oq/WQODdQ+sFBG5nh4DAcaZlyNXLXiw1FmTZYHMm7XpIY+MyQm8Dzu9zJLhcL07YT9PkeffoVmo37EX3Zc6ibaropE9/n4neIPA/QzfPeHPwyGG2ia0KJ24bsMHzALVSXcKoyVhWnzyIrwDhEXZv8dhpLbaIfNQsqac2/VsDgX6nHcUWic1Yi8lJ/0ELWHdwr4CB/9fAa8UYJu15x35Ha6Z0NOVZ6R6hEHjHk/JtZ7LD3UXs92nC02K9WTikMV5LB9B8spvYe2QkNgKG8OisB2cMKvHUJxTCH9+8wKUbl5k6aiLGQ5YzsZPu96ZJCPy+BwbQxagMr0t0ZUCzipwU+zwXHE/OrRP23NoyhU62Dzi6awXxRbLBjauToesSuue+Q03THsTLXoTWXXtj2bU1yR+Jd7TnMhYvGMHiqXN5/PYjbS1HcXj5WCoNWsnzTT1YfMKAemJsC4oXj0PbbakwaBNds59junsIezdO1sv7FVcz/dUQ+PrmHmo0HM+awy4stjCnxhxHOmY4haHFInb5uHB0WieWPymL66KBjGlrRBLzaWQ+ZsWR1E2wndD+/7J/Oodx+d6M3uWmgcB9iwcw7azYciAgsHqfpXge2Mm8zvV4W3Yg8wY0wHluLzHByI3HqjbUrdmFydvcxF5EfUwHv+0ZUYZA3R4MCWKEuSE3iliyXVk+DQrghd9nMqRLSf+6JfhkZsWostdpM+k0+/faaE7fDbWoTpZWMzBwm4Tz28J0rltaQKAB6TNlJW/h0pT6Kys3fdzZvG0bNjYOVOq9gE3jSmJccyAL3feT5T8IXDPTgq79pgmvjFjWVFZCA57QoE5D2gydxfZlk+mz0AOTQonZbTWIBSeT4rphRjgQuA/jJ1YM9xSwIjwDSnCc15eNd4uzTXyEdRH0BoGBj5gwYi6mYp9kpayhm89D3l2mbKF6jHA6THyPyTg8rcBWBQLNjUnXeJJY7q3BqxMO1B2yFofdLuQT67EL+jfluvAENkt7kr9dQ/DeMkOTl/+r5/h/fsPwTl2pMGA1A+p+oFrFPkzbspuaImEoBOYVEFiTmu1GsdhxH6UzBjOoUQUupTGmrXERDQRmyJyVAoVKiVNTWTX5xl0IDMJm+hiSVupK+1ph+7w+0blmEeI1sWGp0WMqDN3Nea/N2AsI3OhXjZ3z+woI9BEQOJSJe92omSmZBgKtbxVloVkCWs/ywmOfvQYCA/1f8swfDi0fzMZXldll3Ud4AivwV3dbRjUryr0j62kzajvOBx0Z36AMuXtvZWTj/MzrXY8Nd7MzsFU1PgdD2oyZyZW/MOWL5eeB2DJhXK+bgJZ1zOrbUBfdOdw89AWBO5ZN4Xaqmgxu+3+QmtqhGvuTt8J5WjXq1RvISg0Ejme0gz/uTvPFvuOP9Gtan/RmE5ncrSZ+Z5zEO7IBq7HtsBy+jM2H3MgvBqKgj/48+defy3sWM8PlLV6OVmIiayq8qL1YMNBcQOA+yrWZzs69rqwdYs7zon2wHmyGy+weWNo/ZoJlCz4HBZMibUay5SxA8VwpeWeQihyZQpfft0ztgNX57Bx2CB1XdBkkBH6r5vt7+ykvViMMshUkQUgQ8eN/FiDuz65LN/jrvBWtV9wSe2+XCy9dEAPMapCq9Wymtq/C2wfnsd20hfWrlvMunwXerjMZ3qwDWYr8ha+4EaFowjecEXv97t+5w7xNLtj3FXuwExjRoXbh/8a2LPxVvAJ3dk3H+qiYGG+YoMtmjvN5/WoIvLXXilqWzhwXy8EjjM2oNT8iCDQmqfkk0nlbcTKTBWvGtdHo/+rpQwKD7tLObLSAQBdqZ0/5HwTmEhBY7AsEzhUQ6F9GQODABrw6tx3zEZuxbF2VNa432O6wKMY3D0SlM0QZAg8fPszYsWN1dk/g+Z2zMR1kj9up4xRP/ZguLfuSpXAJvPYeZanLPtKenk/DscfExkwHMRN7S52iRag7ay/FLs1kiqDlY3ahsyf3DQt5k6kC/pc8KNZmHBWyiH1pjhNpMuUqJw+OwdxoIKvEfr10J1eK5eCjeDiMxLSaGX1tD9OuYkZen3egosUC7LYt5G/LvgxY5kXdwkkihMCiw92wzHmQ8p1s8b7ggTApvCWGXMjSWXhi+kRF90jj6A0CQ97QXBzmeGc0ARfrfqGA+/K0ODDTgsnOR3jvNAonv1rY/dMRyyY1Sdt4stgEX5O3Z7dSsdN8XE8eJo9gx951ivCh/hwmVHtFg14bOHDODWXb9MjWdUhQtT2vDtpR1nI1PWq+p0KhZkwVy5f1RMJ5PWux9WMDDollzeptRrJ4qxdlhIALLRviGGCM16phGm122Mzhc5HGNK8Wero47kJgCHO71WD+lfycP7CWdBruDqC9OOCRrtN6/hGTnYrD9wpP3Hq2TGzDutfVxJaCfgT7n6VqWbF/8sB56goOnt3NGGeasHdcWUqbDsbu6ClKpYU1w5uxL2kTmqXyYd2z8prl4M5iX22ubhuZ3LaUZnNz67lXuXDOmVECAhVP4KgmBdkjljIEe3LJc7lG36OOy7me1JC2lQciXXYAAB+YSURBVJNiIt6PWqNs+Vt88PQZ9AWBO2d2ov3Su5w+7ym81qHXwIxvU0Vs9u6B/ZhS1Kk/GIcTB3hiN56hm9+yd4eV8AQG0q9hdRI2nIZV39pcdvqHemP3ctBtMd3rN6G3w0ksiiZnv81Qposl++H1E/GP00v2ipWAKe2MuVmkL7bjLHh6cBWlOy7h/NUT2PRvxLMiAg6FJ/Ci82yajPXkwvk9mm0Xd7y34vooDcUD9tNr9X0uH1yn2XYys4u4YUC0p8uS0ENbugwSAr9V01mA+Rh3A07uXfHfcuxH+pqU5rXRbGYY3qGV9QUOOCvPFAisSY6ucyjz8QTPspjS3lgciHt4kPyVu+B04RaXF7Wh15KTDJu8im5Fr1PafCi5K3QTK1XzWC3af92LyhxaN1pTgJ2r5hG/ZFMSnlnM7AMphCdwoi6bOc7npSYE/nAwRBwU6lu/PJdzWYp3vQetqhpjusApAk9gTRKYW1P7xSqGuSfihJNyW4AfzSvXw2TcSHaOn46l01Ea5EqAVa86bP1UH48RxTXLwYoncE4HEz7XGMeMHjWFN+aVuFWjJd4PX9Og6wym9TZRpS2/viImQ4YMBAUFfWM3OFisFYWIcPToUUaPHq0zCFSWIxcO68iSw740rFGR8x4b2Xv6HplL1MV5px3Fkt7B1KgJaWu2onj8x8xduZWha88wsU4QtWubk1rc1VcoxTM27rrAWmdnbtsO4R+Pl7QRM7YznjvIZT6BpSONxZUuZUjeYBRDan6gyzgvzp7Zyc5/+jFq7WmaN67G0T07KNhiGqsGlqSsoRmTt5zHrFhS4aHszqyjycTGzAVfeQJDr4gpNGwvczsXYGCzevgE5KN68aQsnbOCqpbLxDJyL500nN4gUPkAHdlA3Sa9SFvMiII50nJTXFmSzLATLmsm4yMOMbQcu4eVDjY4zewvlsemio3ydcQJy4e0qmPC8+w1qJQ/GbZzxebZyXZsHllfwGIdziUoSsUcwew5+i+OLuLux5HNsL2dna0O1jgMa8rWh5kwq5xf2JhLQtO5nJggTq82tMTW/QwVxFkJ5WoS0yZdyVG9uTijd49NHjexcXaj4X/3MV7cOQPzCSc4dcYR/dxaB/o6GPJe7ME0MzHjQcK8GBbLw/N7F7kXmI897tvI4bePYuXb0nH6ajJcs8HetzpeAjQICWBYS2Pc/s1LoyrZcViziAxGEzm2eQTTejVmy9XEYuk8My57TmK1YzcZLyylTh8Hlm3dCscWMXzlCVoo7eKyiQsJC3P1tCv9q+Yhz0BXJrcUAP/yKi1NzfmQ10gcugliw2Yv5jnt46NjHzrN8qRdj47ECwgQ3vYQGnX/m1ZGOrjq57s3Q18QGOz/mI6mJng9T4xxhaK8EXdxnX4QHzt3V6pleIFRmfLk6zqb+smvMHe7L96eNpobA1wWDKTXwoO0Fh7Bu4ft2PksL4+v7cPrnx6M23KDRnXK4bnbnT6LdmGe7AhlGg1h9LJtlAs8hMWodbRqYcbjC7uxP52cZ/ePML9zTZ6UGMjqsRaC+/+lr4UpJz4XxKRkFrFEbSc8utsZY5aZFnUaYFCkLgVT/cv2ffdYsdWJ2kUy6GQc+ToTCYH/VyMkyE+cxC5M5i5rxf7Mel8eHFg2gKbzr7N8cCWmijY/7rlReGOC6Fq9JLkGbcDsswuNhm2gXfvmvLh2iAdJquC8aQaXxSGQCm2msfyoLz2L3CRJmgrUHLEOt1kd8L19kEYNOpKlRjNyGzzGzvUydl5evNs1mvEeqTkhJggy/F8BNSHQy2YQtQZsplVzk9ArYm6f56JvOnZ5uFIuuz/1ilSn6VovemY8TsF6szl04zAHxzbD+lFFjqwdxUCzknw0XcrStumoZ9KUVOVMyfj6EmfeFxA3ZsxjUR8Bfvez0UiMvdttF5HeZAYew/JQvO0cjp0/hNv41oze8i9rHNZQp2Qudgjni/lId/bfvU3N3Pq6Effb3vYL7wkMLciR3Rtw3H+BZKmziGWa6uKevZlcSV+XdVN6cu+MGws2uJOneCUKijExYc5K1Cqdk9d3T2G9dCNvAxNj1sUSoxLZlTVN7JZac+rOa7IWqoxl96YoF8+cctuAg/dTLJpX5fJF8X/7pppTQLvXWeN1/gG5S9emf3tTMUg/Y+1mZ6o37kz+DAm4ccyN408S0K5p7a8OhnzCcY0Nacs1x1gM5AQ8ZdGc+TwITEepgplJmq0UTWuJq2N0EPQJgUrxnl47js3azTz3DyJv2Vr069JUMxv+LK7fWTBnEVkqi6WxwH9JnLOi+Gjm1tTo1e2TzF+8icR5ylIpb0oC0+bGtGppsQb8iIVWC7j7KgEWfYdQqUB6nl7xZv4aZxr1HEW1bO+YM2M+LxLnEddrCAgKyUrzillZ6+hBA4tOhF1B9+/1oyy02cq74KQ07zWQKgX/f9H0i5vH2H74KR07mettE7W+IFDRLtD3NjbLV3PlkR9pchSjd79eZNdcbRTIrtXWnH6TTfTt5Dz5lB2LuqF3UH58eRNrcTLtddK8GBvm5c3HtDRvKLxzwW+wXWAlTmK/pnarvphWLCCuJ3iM9ewFpChnTvfG5dlkPZ3Tj4LFhMmId+/ECe9mTdi/abkYpFpQTZwqVkLA82ssWLCCfwPiYdSyN2aG+XG3W8Lhy4/xe+2nbF3TBJO2g2lcOeqXoUa1++sLAkPFe8UGm2Ucv/aExGlz0bVPP4pmDR1Uj+xYhfOl9zSoXoxHzz7TskXd/yZ6H9i6wopj1/2pU7c6r98EULexOekSheBsO58DFx5Ruk5b2tcvJ9aF37BuwRwepTZkdNeGuK63wuPcE6qb1CLALwCzJmacdXfgXYZy1K/83zaAd09ZsnChuCLmA6Vqt6K96X8XtD+5hJX1Kl4FpaCl6PeG4v3RR5AQ+H9VQ8Qp+GXL7Khq0YeS2f+/2TPw3+ss3bCXkmUK8OBFMG1bmIqVqBBxH+QakpSoj1HxbBxyWo2T9xWSpM9Dv/79yCa2Ffk/vMSyDXto1n8I+ZK9F9eHLCRf/Q4YFxPfJhFe3vRh4XJ73gYlpVmP/lQtkpnrx1w4/jg5HZoJL5AMXxRQEwIfXznEso0u+PqJPTUipM5WhK49xWXRys3yYgVyy2oH/jJtTalkj1m55QRtu7flwSEnTvlnpZ2pIfsc1/IppxH1K+TB7+5p8X3cwNuk2bEcPJC8aRPwyfcOC+Yt5mXiXNQWV1K9DcpEwzJpsN3tQ+tObUnw7CKz5q+npHCANBPnHC7vsqLtjMN4HdpC2phcHBuN/hTl5WBd3xMYURk/fPhAkiT6uTU/Gtr80qj6hsBfWrlYalyfEBhLq/xLi6VXCPylNYudxiUExs52kaX6VgE1ITA2aR/4yZ+5A9txO2cHVoxpoVrRYiUEqlb7WGxIQqD6jSMhUF3NJQSqq7eEQHX1lta0U+DPhMBX9Gko9n3fSI/rIRdKZFbPCSYhULt+qvdUEgL1LvEPBiQEqqu5hEB19ZYQqK7e0pp2CvyZEBjErcuXiCe2GOTNrK+fQwi/PSQEatdP9Z5KQqDeJZYQqL7E31iUEKhuA0gIVFdvaU07Bf5MCNROK12kijIEnjp1iqFDh+rwdLAuiv/75iEhUP22lZ5AdTWXEKiu3hIC1dVbWtNOAQmB2ummbaowCHRyciJdOuW3k74NypUxBu/evQvx8fFh4sSJEgK1VTqa6SQERlMwHUSXEKgDEaORhYTAaIilg6gSAnUgosxC7wpICNS7xN8YUCBQGYs3btyIck+guBHwm+efP3/G4PXr1yHK6eCpU6dKCFSpfSQEqiT0V2YkBKqruYRAdfWWEKiu3tKadgpICNRON21ThUHg2rVrSZ8+/Q8QqPEEKpdFnz59miFDhkgI1FbpaKaTEBhNwXQQXUKgDkSMRhYSAqMhlg6iSgjUgYgyC70rICFQ7xL/4Ans0KEDO3bsIG1a8TNU34UvvxiieAJHjBiBl7jpXAb9K3Djxg2Ni9ZZ/BpK5syZ9W9QWsDQ0FBcnrxA878M+legffv2VK1alT59dPNTi/ovcdy2YGVlhTKOK8s+MkgFYqsC9vb2rF69Gjc3t9haxN+qXI8ePaJt27Zs27ZNsxz8fQgMDAz1BCqDx7Bhw/Dw8PitBIitlbl27RqdO3dmq/gZsOzZQ2+dl0G/ClSpUoW5c+dSuXJl/RqSuWsU6Nixo0ZrCYHqdAgFApUDfuvXr1fHoLQiFdBCATs7O9atW4eLi4sWqWWS6CqgLAd37doVR0fHiCHw4sWLVKpUiXz58mFgYPDDunF0Dcv4P1cgXrx4BIjfbb1//z558uQhceLEKC5ZGfSjQFh/vnnzJlmzZiVlypRSb/1IrclV0Vv5d/fuXVKkSEHGjBl/+NFyPZr/I7OOHz8+z5494/3795oxRdn8/f0G8D9SGFnpWKWA0k9fvnyJr68v+fPnl/1Uz62jjMMKa3z69EkzQVT2BH4fvngCz5w5o3EZjhs3ThNHDiD6ax3lRXj48KH4bctlDBo0SEPnyuZMGfSjQBgETpgwAWWJskiRIignomTQjwKK3spER1l6L1SoEKampigDjQz6UyBhwoTs3LmTW7duMXDgQM0kR47h+tNb5qydAko/PXDgAIcOHWLMmDGyn2onY5RTKazx9OlTlEMhnp6ekS8Hjxo1ShNRBv0r8ODBAywsLDT7IlKnTq1/g9KCZmly6dKllC5dWqqhggLKdofq1avTrVs3FaxJE4sXL0a56svW1laKIRWItQps374dGxsbuRysUgspntfmzZtrtp5FuCfQ29tb4wXcv3+/SkX7s83I08Hqt788Hayu5vJ0sLp6y9PB6uotrWmngDwdrJ1u2qZS9gQq+7OVAznK1pzvV8GUFQPNwZBjx46heAIlBGordfTSSQiMnl66iC0hUBcqRj0PCYFR10oXMSUE6kJFmYe+FZAQqG+Fv80/7BdDFE+gAoHfnz/4ck/gyZMnNaeDJQSq00ASAtXR+WsrEgLV1VxCoLp6SwhUV29pTTsFJARqp5u2qaL828HKFTHDhw+XEKit0tFMJyEwmoLpILqEQB2IGI0sJARGQywdRJUQqAMRZRZ6V0BCoN4l/saAhEB19Y6yNQmBUZZKZxElBOpMyihlJCEwSjLpLJKEQJ1JKTPSowISAvUobjhZSwhUV+8oW5MQGGWpdBZRQqDOpIxSRhICoySTziJJCNSZlDIjPSogIVCP4koIVFfcmFiTEBgT9bRLKyFQO920TSUhUFvltEsnIVA73WQqdRWQEKiu3tITqK7eUbYmITDKUuksooRAnUkZpYwkBEZJJp1FkhCoMyllRnpUQEKgHsWNiSdQ3hOobsNICFRXb8WahEB1NZcQqK7eEgLV1Vta004BCYHa6aZtqu/vCQzv15s09wQeP36ckSNHxqnTwfs3z2P8/K18Tp6WETMW0bRSXm11Uj1d3IXAD0wbPZoyLUbRoFxm1XWLicG4BoGv7p9mxKDh3Hj5iTR5DFlgPZ3caRLFRAJV08YGCLy0dzW9p2zDymE75bKEavfgxA4mrjrK0mUz2fHPYI7Eq8j8YW2+aLNhah+OGFRjydgG9G3TgwZjVmNWItWX559u7afDmHVMWrqCwukSqKppRMYkBOquKUL8H9LDoilH7r0LzTRTKXY7biBvuvi6M/KH5iQhUN2GD1sO3rZtm+YXQ77/OUnl8mgNBMa1K2Ie+Nhj1HwcY5fakPGpJyMXH8F+rzslMsSNlzQuQmDg2+fMH91DaL0Hu+OPaFUxg7q9OYbW4hIEhgS+oL1xZfzL9GJEa0Mc5ozgUtqGuKweR1zBwNgAgSe2zKBiyzEY913IvsWWmh50zW0pLcfv4rjPbpZ2M2ZnPFO8bEZ86V3T2xnibGDO0Q1dqZSvLN3WnadHtf//8PqH81so1GgyW46fpmKWhDHslbpLLiFQd1o+P+eAUbPpDJ83iXRKtknSUduoGikSG+jOyB+ak4RAdRv+t90TeGjzP2y8mJpl03oJRd9So3BROq46Q/eqcQNM4hwEhnxm7oDmrD/6BgL9GLV8D60rZVK3N8fQWlyCwE8vz9Krz3xGrLOlSBJ4ccKOmj2Ws9vHizxxhAJjAwQes59J2xGLefUhJatcvWheNjPXPVfSecoe9u3fyqp+AqzjmbB74aAvvWuOAENXAzM8V3agVonqdFxxlM6VNSigCR8ubqdsy1ms9zpEucwSAmP4WsbK5Kc2jmeoqwH7N0yOleWLy4WKfRAYiMPCyaxxO0uqLEWY+s8U/kqXmPfPrjJlwhSuPvMnXpoCTJs1lcKZknL3hAvjpi7E71NizAdMoptpPiYMGUXVLhOpWyKjGCDuMmbMEloMnUjZ7Ml+eVP9thAYpuyLBzfZtnom630MsNu6nBxJ4/1y0aNSgLgHgYGcO32WfAVy0rNlE0zGONG1ZtaoVDXWxIlLEPi9aC7zezNkewDH99uSOm50cWIDBB5aO5YJO15RP38Aq0/H5+K+VTzav4o2E10lBMaaNzP2FWTzxI6MsruAcfnCBCTIwshJ4oOeO3XsK2gcLFFsg0D3ZcMYtPoS44d354bHOtxf5MN98zSGmlXkWiYzBrSoyM7l07iTvQ3uc1rT3KwxpduMpXTqWwwcsYKNx07gNsiE26WGs3lCK+572VB/2Bb2HHIjV7Jf7zn+7SFw0yxLxluvI2uNfuxYN4P0ccRLEucgMGywCXxCU5NGNJ7sTJcaEgLVGINfXnWnQtW2WK7ayxDzMmqY1ImN2AGBoxls78dBh7+pVawozZYdo3vWs5gNcmDfAekJ1ElD/4aZLB3dgc3ng+jU3ISbRxxxOA0e+7aTN03s2QMaV2WPXRD4imblK1J4wHqmtTfk4+MTVDRuz4S1u0nx+ja1GtZH8fX72I6h0/qXnFk3iMpVjGhvtQvLJhW4cmQvifPX4OP+aXRb84xTbstZ/3c7nN8biS08PWJFE/32EBgkNjUG+j/GwtiY/N0WY2VZP1YIH1kh4iwEBjyiqWkTCYGRNbCOnvve9MakdnNKdZvDqr876ChXdbKJLRDY3/YRZ73WcWjFQNouvYPtjNZMn+vErr0O2PRpgHui+jhbD/giytyeJnglac6uBc0wFsvBneRysDodJtZa8cO0REmqThbLgE2LxdpSxpWCxSoIfHeBqiVq45epIBmTJiJeyCdu3X7JLEcvGmV9woSZy3n89BnnfQ4SWKQdV/cswH3NJPr/vYQPSTJj0XM4E4Z1IMHjYxg1GsLy3U7Y9GhByaFr6WWcL1Y0yW8LgSfdHXiYuBjmNUNfymUDGrEruDa7Fv1/b0+saIGfFEJCoPqtE9eWgwOenqGuUQNyNZ/Bxmmd1RcshhZjEwQeEhCYMtiXNjWrcN0gBxnS5GDHzjU4jGrKygdlOLjx7y+1ndC2MlfyDcJhqhFGJWrQdZUPHSv+fykwdE/gP2w6eJjSGWLP2rw8GBLDDhuWPOQD9mtWk7taKyoVVA4EBdGxelGydt/IrE7ldWTkz80mVkHgh6tUK2lGm8WONC+RiXjxhd8vKJDEwc9p3aQ5ycp3YEif9sQ/v55etnc4vmclSeIn4NN7Xw7scmDIkDHUHmuPVR8j+rdoRLLCwjt44QrzNm6hQIrY0cZRhsC4dk/grrnd6WzzSAjuSoaAW9SpYkKV4euZ0qlq7FA+klLEZQhsUq8RTabslnsC9dnTPvvRx6wqV7N2wHPNSAyCgwgOMSB+/NgDHZFVPzZA4ME1o7Bc+4iDB9aTRhT47oE1FDTqSqaq7bjuvYFnbgsoLYBupes+mlbMx20fB2rV78ffO87R08iAGsVr0Wn5YTpVCj0YYmBgwKfLOyljMZ11ngcp+9/BEAODeL+8bSQERtYjo/r8k9gPVoYDKVpw0m4Sj05upkaLaSz3OESdAmmjmomM9xMFYhUEEsjwpoZcyNGNPQv78f6mJ036LWJgr1YMHjwe+zM3KJsuhGkdq2LzoDRnVnaiVbe/mbnNjbJifjCsSTmelh3BBrEX8MCa0TQZvopGXSazfnbvWNP+X98TqFwRo1wJ83VQrozRXBHj4+PDiBEj4sw9gcEfnjCqe2dcL78lSYgfOat0ZI31SFLHkS0bcRcCH9LYxIwm01zpJg+G6O1Ff3HagTzlWpEy91+kiP+Zz8EhZCpjxu4tC4kjtyDFioMhB1ePoO+aRxw+tJFQX16QWNIrx6Jbubh1fifpCWDRqO7Mst1HgiRJ+PgxkLqdxrNyRi8SfLpH7SIlOfs+DamShMJ3soImbJ/SkiZir5Bf0pwk/u9GqryVLNghbixIqbceEXnGEgIj1yiqMV7fOUZHcUfk0/ipefvKl+aD5jC1l2lUk8t4ESgQuyBQ3LxwVdz72bk/L+On4/3Lh1RuP4UFw82Z2tWMdSf9KJQ/J2mS+HPtcXo8xcG8TaM6sMj1GjkyJuFDsr9YvnYFpbIlJ+DeQfIXNmHQ1nOMaFg41vSB3/aewFCFP3Dy8Ek+JEpNtQolYo3oUSlInIXA4EDu3L5N6iz5SJci9lyPERXN49JycIDvU67eeUJg4AcCPwdrqpcoZQZKlyhEwl9/4CwqcscKCPR/9ZhHrwIpUCA3YTeIfvR7ys2n7ylUKB9hc8Y7l8/w2Pc9ydJlp0yRPKH1Cxb7g65e5YWfvwbClRA/WTpKFczFvdtX8X37QXhnQ6MmTZ2ZUsULfLERJYF0HElCoG4FDXzzlOPnbpA8Ux7KFMqp28z/4NxiGwQqTfFZtPUx0dYJU2fBsORfoa3z6Q3HT54XM7+MlC/9F/euXidTocKkMAjmwomjvP4AhctWJmPy/1Zn/j1NneZDmbnFg/KZY899xVFeDo5rl0XH9XcozkJgHBY+LkFgHJb5S9Fjw3Lw76BjVOsgITCqSsl4v1KB2AiBMdXj7iUfVllN5ky8auxYPuqXTga/r4uEwJi2rp7SSwjUk7ARZCshUF3NJQSqq7eEQHX1lta0U+B3hMBt8wYyZesNltk5UClXLDkR8l/zSAjUrp/qPZWEQL1L/IMBCYHqai4hUF29JQSqq7e0pp0CvyMEaqeEOqkkBKqjc7StSAiMtmQxTiAhMMYSRisDCYHRkivGkSUExlhCmYEKCkgIVEHkr0xEGQJPnTrF0KFD48zpYHVl1L01CYG61zSyHCUERqaQbp9LCNStnpHlJiEwMoXk89iggIRAdVshDAKdnJxIl+7/v4EeVorg4GAMXr16pbkiZsaMGRICVWofCYEqCf2VGQmB6mouIVBdvSUEqqu3tKadAhICtdNN21QKBLZt25bVq1ej3BOoQN/XISgoCIOPHz9qIHDcuHESArVVOprpJARGUzAdRJcQqAMRo5GFhMBoiKWDqBICdSCizELvCkgI1LvE3xhQILB9+/bY2dlpIFC5HPrroFwerbks+uTJkwwbNkxCoErtIyFQJaGlJ1B9of+zKCFQXeklBKqrt7SmnQISArXTTdtUYcvB27dvJ3165WcQvw1fIFDeE6itxNqlu3btmobOd+zYQbZs2bTLRKaKlgKKJ9Da2prKlStHK52MrJ0CEgK1003bVBICtVVOplNTgc2bN7NmzRrc3d3VNPvH2rp//76GNRwdHTWewO9DYGDg/382bvTo0Xh6ev6xYqlZcaVhLCwscHNzI00a5VdNZdC3ApUqVWLp0qWUKVNG36Zk/kKBTp06Ub16dbp37y71UEGBxYsXc/z4cdatW6eCNWlCKqCdAgqM2NjY4Orqql0GMlW0FHjx4gXNmzdn27ZtEUPguXPnqFKlCvXq1dP8SPrPgvLs+zXlaJUompF/R3tKnXx9fTl0SPwgeZ06JEuWTDVNf0c9v+5SEdXP2dkZQ0NDMmfOrDO9/2Q9I3qV48WLh5eXF5kyZaJYsWI/bEaW40s0B8JIoit6X7hwAWXANzIy+tK/Zf/Urc5Sz5jpqfTTmzdvcuPGDerXr6/JTPJEzDSN6PsXxhrKkrByA0zq1KG/oP51+OIJfPPmDfb29ij/K6dHEiZM+EPjKI3l7+9PqlSpvnmmGFJOmISXTttnYZ3jd7QXBtmKXnGlfkrbJ0iQINx2D++Z0n5K/d69e/fT/hLdPMP6krb2lPIodfh6II8oz5ja00f93r9/T8qUKaPcDtrWLyydtvaU9o8fP76mD4T9H5WyaGtPW61/F3vKeK256kGMxWH9WxmTf5f6/WzsUbN+yt6pgIAAnb5/Sp5KCK9+yrMPHz6QIkWKH973yNJFlOevtKdAoPKuKv+U/qlm/RTYEYdgVdMzNtgLGw+yZMmCubk5iRMnDh8CRWOEKI0TlaA0WpIkSaISVSdxpD2dyPglE6ln3NZTGcTCe5F1W6v/5ybt6VZZqafUMzoKfPr0iUSJEkUnSYziSnsxku+HxLFJTwVKlQn590FzMETMbr49M/wTHZSZpp+fn+bCQTVcuNKebjvk766nMrNUPNlq9c9fYe/t27ekTZtWlfdPqV9M7EVn6UyJqwxGMbEXnbdFsacMioonXukv39+dFZ28ohJXLXthmqtlL6zu0l5UekHU4yh6KgChrKSo1T+lvai3T2Qxw9pP8VQr47Ua44sywVQ81T+zpzBbeFv9NH9XrogJq5Qy8Cv/wpt9KBV5+fIlGTNm/EGDiNJp++x3t6foIi7qVk3PiOwpH2BF7/DaXdtn0p5u9VTa4fXr1+Fu7tW2jSJLJ+396IWJTLOfvUcKdCqT6PBO6GmbZ0Tp/nR7ymdNWSYPz/OhzbPI9NQ2T6V84ZVTgTJlUhTetR5KWX6WTttnv7s9BZKUSZ9aesYle/8DZs/FYttpX+wAAAAASUVORK5CYII=;" parent="1" vertex="1">
          <mxGeometry x="16" y="3240" width="522" height="61.89" as="geometry" />
        </mxCell>
        <mxCell id="4Ed66H_ixb7A9p733Kqp-102" value="CHEMICALS table" style="text;html=1;align=center;verticalAlign=middle;whiteSpace=wrap;rounded=0;" parent="1" vertex="1">
          <mxGeometry x="70" y="3330" width="120" height="30" as="geometry" />
        </mxCell>
        <mxCell id="4Ed66H_ixb7A9p733Kqp-146" value="Modify Question" style="rounded=0;whiteSpace=wrap;html=1;" parent="1" vertex="1">
          <mxGeometry x="488" y="2660" width="104" height="32" as="geometry" />
        </mxCell>
        <mxCell id="7I7FSgPWb7zvWcSzZrZ3-23" style="edgeStyle=orthogonalEdgeStyle;rounded=0;orthogonalLoop=1;jettySize=auto;html=1;exitX=1;exitY=0.5;exitDx=0;exitDy=0;endArrow=none;endFill=0;" edge="1" parent="1" source="4Ed66H_ixb7A9p733Kqp-147">
          <mxGeometry relative="1" as="geometry">
            <mxPoint x="670" y="2727.666666666667" as="targetPoint" />
          </mxGeometry>
        </mxCell>
        <mxCell id="4Ed66H_ixb7A9p733Kqp-147" value="Modify password" style="rounded=0;whiteSpace=wrap;html=1;" parent="1" vertex="1">
          <mxGeometry x="488" y="2712" width="104" height="32" as="geometry" />
        </mxCell>
        <mxCell id="4Ed66H_ixb7A9p733Kqp-149" value="Modify Question" style="rounded=0;whiteSpace=wrap;html=1;" parent="1" vertex="1">
          <mxGeometry x="465" y="2940" width="104" height="32" as="geometry" />
        </mxCell>
        <mxCell id="7I7FSgPWb7zvWcSzZrZ3-29" style="edgeStyle=orthogonalEdgeStyle;rounded=0;orthogonalLoop=1;jettySize=auto;html=1;exitX=0.25;exitY=1;exitDx=0;exitDy=0;entryX=0.75;entryY=0;entryDx=0;entryDy=0;" edge="1" parent="1" source="4Ed66H_ixb7A9p733Kqp-150" target="4Ed66H_ixb7A9p733Kqp-152">
          <mxGeometry relative="1" as="geometry" />
        </mxCell>
        <mxCell id="4Ed66H_ixb7A9p733Kqp-150" value="Modify scores" style="rounded=0;whiteSpace=wrap;html=1;" parent="1" vertex="1">
          <mxGeometry x="616" y="2940" width="104" height="32" as="geometry" />
        </mxCell>
        <mxCell id="7I7FSgPWb7zvWcSzZrZ3-34" style="edgeStyle=orthogonalEdgeStyle;rounded=0;orthogonalLoop=1;jettySize=auto;html=1;exitX=0.75;exitY=1;exitDx=0;exitDy=0;entryX=1;entryY=0.5;entryDx=0;entryDy=0;" edge="1" parent="1" source="4Ed66H_ixb7A9p733Kqp-151" target="4Ed66H_ixb7A9p733Kqp-152">
          <mxGeometry relative="1" as="geometry" />
        </mxCell>
        <mxCell id="4Ed66H_ixb7A9p733Kqp-151" value="Modify password" style="rounded=0;whiteSpace=wrap;html=1;" parent="1" vertex="1">
          <mxGeometry x="758" y="2940" width="104" height="32" as="geometry" />
        </mxCell>
        <mxCell id="4Ed66H_ixb7A9p733Kqp-165" style="edgeStyle=orthogonalEdgeStyle;rounded=0;orthogonalLoop=1;jettySize=auto;html=1;exitX=0.75;exitY=1;exitDx=0;exitDy=0;" parent="1" source="4Ed66H_ixb7A9p733Kqp-152" edge="1">
          <mxGeometry relative="1" as="geometry">
            <mxPoint x="642.6666666666667" y="3340" as="targetPoint" />
          </mxGeometry>
        </mxCell>
        <mxCell id="4Ed66H_ixb7A9p733Kqp-176" style="edgeStyle=orthogonalEdgeStyle;rounded=0;orthogonalLoop=1;jettySize=auto;html=1;exitX=1;exitY=0.75;exitDx=0;exitDy=0;" parent="1" source="4Ed66H_ixb7A9p733Kqp-152" edge="1">
          <mxGeometry relative="1" as="geometry">
            <mxPoint x="860" y="3230" as="targetPoint" />
          </mxGeometry>
        </mxCell>
        <mxCell id="4Ed66H_ixb7A9p733Kqp-177" style="edgeStyle=orthogonalEdgeStyle;rounded=0;orthogonalLoop=1;jettySize=auto;html=1;exitX=1;exitY=1;exitDx=0;exitDy=0;entryX=0.75;entryY=0;entryDx=0;entryDy=0;startArrow=classic;startFill=1;endArrow=none;endFill=0;" parent="1" source="4Ed66H_ixb7A9p733Kqp-152" target="4Ed66H_ixb7A9p733Kqp-167" edge="1">
          <mxGeometry relative="1" as="geometry" />
        </mxCell>
        <mxCell id="7I7FSgPWb7zvWcSzZrZ3-32" style="edgeStyle=orthogonalEdgeStyle;rounded=0;orthogonalLoop=1;jettySize=auto;html=1;exitX=1;exitY=0.25;exitDx=0;exitDy=0;entryX=0.25;entryY=1;entryDx=0;entryDy=0;" edge="1" parent="1" source="4Ed66H_ixb7A9p733Kqp-152" target="4Ed66H_ixb7A9p733Kqp-151">
          <mxGeometry relative="1" as="geometry" />
        </mxCell>
        <mxCell id="4Ed66H_ixb7A9p733Kqp-152" value="" style="rounded=1;whiteSpace=wrap;html=1;" parent="1" vertex="1">
          <mxGeometry x="418" y="3080" width="300" height="90" as="geometry" />
        </mxCell>
        <mxCell id="4Ed66H_ixb7A9p733Kqp-153" value="Instatute.db" style="text;html=1;align=center;verticalAlign=middle;whiteSpace=wrap;rounded=0;" parent="1" vertex="1">
          <mxGeometry x="510" y="3110" width="106" height="30" as="geometry" />
        </mxCell>
        <mxCell id="4Ed66H_ixb7A9p733Kqp-161" style="edgeStyle=orthogonalEdgeStyle;rounded=0;orthogonalLoop=1;jettySize=auto;html=1;exitX=0;exitY=1;exitDx=0;exitDy=0;entryX=0.769;entryY=0.016;entryDx=0;entryDy=0;entryPerimeter=0;" parent="1" source="4Ed66H_ixb7A9p733Kqp-152" target="4Ed66H_ixb7A9p733Kqp-98" edge="1">
          <mxGeometry relative="1" as="geometry" />
        </mxCell>
        <mxCell id="4Ed66H_ixb7A9p733Kqp-162" style="edgeStyle=orthogonalEdgeStyle;rounded=0;orthogonalLoop=1;jettySize=auto;html=1;exitX=0.25;exitY=1;exitDx=0;exitDy=0;entryX=0.914;entryY=0.016;entryDx=0;entryDy=0;entryPerimeter=0;startArrow=classic;startFill=1;endArrow=none;endFill=0;" parent="1" source="4Ed66H_ixb7A9p733Kqp-152" target="4Ed66H_ixb7A9p733Kqp-98" edge="1">
          <mxGeometry relative="1" as="geometry" />
        </mxCell>
        <mxCell id="4Ed66H_ixb7A9p733Kqp-164" style="edgeStyle=orthogonalEdgeStyle;rounded=0;orthogonalLoop=1;jettySize=auto;html=1;exitX=0.25;exitY=0;exitDx=0;exitDy=0;" parent="1" source="4Ed66H_ixb7A9p733Kqp-163" edge="1">
          <mxGeometry relative="1" as="geometry">
            <mxPoint x="626.6666666666667" y="3180" as="targetPoint" />
          </mxGeometry>
        </mxCell>
        <mxCell id="4Ed66H_ixb7A9p733Kqp-163" value="" style="shape=image;verticalLabelPosition=bottom;labelBackgroundColor=default;verticalAlign=top;aspect=fixed;imageAspect=0;image=data:image/png,iVBORw0KGgoAAAANSUhEUgAAAYoAAABqCAYAAACiTRYmAAAgAElEQVR4Xu2ddzxV/x/HX0ZDe3wlpL21SzsRRUuJBkohJVRo/fLNavdNw9dqSGnQ0tIgKUVfGdVXaftqCtG2ErffORcZGdc91z1uPucfD/ecz/v9/jw/n/t+nc+454j9oA5Qx/fv3+k/qFOnDvdv6YPpedpecnIyWrduXS32K4tPFPzXrVsXBc1B+JciUFn7VnaeafvT5bOysiAlJVVm/+XlfEX9n5fyNcn/p0+f0LFjR4wePRoODg7w9/eHuLg4tLW14eTkhNDQUCQkJKB58+Y/ef1O9S+rE1TWPqJcf7GcnByuUHA4HG7d6cYu62B6nraZmpoKaWnparFfWXyi4L9+/fqg2qNa+IhC/Wty/6Njy83NhaSkZLlCUdn5ivq/IOwL2//atWuxfv16Lg8ZGRlu7khKSuL+v2bNGtjb25dg9bvVv3RHEDZ/YfonQlFAuzKhYXqel0RNhKLm3qgIIpH/bony8+fP6Nq1Kz5+/FgiZzVr1gxPnz4F/bf48bvVX5iJmu3+J0amnvKbu7KpC6bnaR+VTb2RqaeaO/VJt19lUwuVnRflqYfy6u/o6Midaip+0FNR9Oelj9+x/sXr+Du3PxGKgpZmKgSVlSdCUblQ0oxq6hoZEYqyhbJwraJwVEGPIkqvTRQmUyIU5a/RCqJ/VadQEaEgQlFjRlREKJgtlldnoqgokRUfVZQ3mqjsRqmmJ0pBxCfKQvmLUNDTH+QgBAgBQoAQqB0E6E0HtNhnZ2eXu6uvTKEob4tm7cDGXi3FxMTK3R7LXlS1wzNhz6ydC9ckylqbqMwyk7KV2SbnKyZAry/R+Z4eCRKhEJHeQpIVew1F2DNjT69V0EfpnU68WCVCwQul6rmGCEX1cK1WqyRZVSveCo0T9uyxJ0LBHnuehYL6gUyJH9zJy8uT6Q+W2o0kK5bAU24Je/bYE6Fgjz0tFOnp6bCxsUFeXl65PyglaxTstdEvnkmyYq8xCHv22BOhYI89zyOK0j+4q+hHX+xVp3Z4JsmKvXYm7NljT4SCPfZEKNhjz7dnkqz4Rse4IGHPGCHfBohQ8I2OcUEiFIwRCt8ASVbCZ17okbBnjz0RCvbYE6Fgjz3fnkmy4hsd44KEPWOEfBsgQsE3OsYFiVAwRih8AyRZCZ85GVGwx7zQMxEK9tqAZ6Eo/T4K+lHXwvpldvLTaJw4F4z36Tlo1KoTZhvqoXWj8p/3X104EyLP48QDYJXxpF9cpNwPxYHo9DLPCToe4QtFOry3OENx+nIM6djoZ3XSEyLhfOEFHBfPFHQVKXspcHX0hMoiR/SWKWU+PQFbnC9gnuNilD5VDYGUMCl89mXX6POrOPgcP4sP6bloJtcFegYzIdNQorqrz6p9ZkLBwUmPDfjYRg2mWsNL1CP+VgSaDB2GVtSneRlvEfNfDob0aV/tdS3ut7gzOs8cuhQD7u8RqENcsi56jdLC1NG9UPZbgEqGWp5dJhWihYLeFku/P6TC7bHsCEUOvFfpw+rAPZjMnw25ZvWQ+vQWPE89wNGrYZjYV7hpIthlEWaeAD6Ee/7C/J6vI1Q8Uso8x6SByior/GSVjJEtZDH9WBKWji1682BysAtkLa7jx9NTgq4iZe8euor1hWPsD+j3KWU+ORgtZC0Q+uMpSp+qhkBqnFA8DnbHiGlOmDRvHjq0rI/nUUE4FQfciAxDf9nf9xlsTIQi9+UFyCrNww+xbrj7JgwKdcQK2vU+ekjo4mjuY/SlHo3jaqGMh13XwGPpOBReUT19qqTf4j6C/zbHlG3RWDFvIvW7HerVBpnvccLHG7KT1uKylw3q0R+We5Rvl0k9eBYKNrbHPjq7Ef0XnMCtf2+hn2y9n/UM2GII85CWeHl5B1dhi99dSXcciHkGk0DfXJ333oKWw/Tw5PIRvPoqCW1jc7TJeQyvwxeoZwh0wcJFemhScBP2PDoQvoGRgNQf0Deejw4tivwVOi4tFBlvH2C3zyl8a6CA4U1fQNurdgvFgxuncTo0FmINpDFjzjx0kWnIRUffpe3fcxBvvuair4o2tJUVuZ/T7VO/w3BEhV1DF2VtTFfpXawvlxQKzrcP8N27DwnUEyCmTeoG5f7La61Q2Gp1xKuh23DYVruAFwcrJnRG2hhX7F8+kfqMg9irpxAQHgfJxm1guMAIctzRRtmf0yND99B36FfnP0Qn14GJuQVkJD/Az8sbz9Ky0GWIJvQ0lXi6m2WSjCory0Qo/Ox14Z46HN3urIec1TWs1evLFYLz3stgNN8HunbLYag5FOuWzkVqy9FYtnI5Zqn2wYfn0fD2DQT1vF5o6htDqUMLbpjH3JzQbYIpIvy9kZbbGHoLFqJhSjQO+F9FPbl+MDeagvpUcqKv66w+FxEBh/EJzWBgYsrNLef3U35NDlJ+l2H58lXo1Lgo+dNCMev4D6SFeXB/4Ekf35Ji0L/nMBgdeoTlkzpDjPMN18/44cb9F4BkI6hPn41hXVuXabfwe0n3hTmm8yDPx2wMz1NPbAjF6skd8WzARpx0mlWyD71/DI+LL7BgjiYyngSh93Aj6FhYQLYBcPGQC+prbkHgNiMsGtkCx1/KY66xHsTjr2H3rY8Y0q4lxoxTxfXjbtR1m3F242xEHF6NiasuwtJcD2LvH8Lj2L+4EBWDwfIl786KC0XWqwgMHKCBfobW6NX4Iw7v9UVyx+m1dkTx4PQGjFkdiCXzJiPndSS2nUnB/fhwtMt8gFFKo9BSbSFGdmqIgAPu6GG+H3uWaHLb59i7nlhGTeV1HTqJEopeZQtFr/eYO7w/nspoYuqwtrh0ch8ib9dBZC0dUfisnIh1/0jBfftGqA3qCslS8xEXnI0wZ9djWJtMxddH1+AdUw+xsWdxw0kblsdSuJ9/eXoDe66+R1hUGKRj3dFuqi3G6i7G0G7tsMhqIoyGDkaGoh40+kkj5NhuNJiwGafX61WWy6v1PN9CwUnD+A7tMOXQCyg+XI/ph7/hdZgn6lBJONhvDQwMdmP2ZnsYqA3EusWzkSKtjlUrrTFA/DaGTPofZlksgrTYe+z2OIZN5yOhP6QNdLqJIyxPCfPnaeN9zDmc/S8PPVvJYtzYwVSy3oYeZr7YY6UB3e7Uddm9MXveTNRPogQ5MAU379xEUrAD5XcP5dcOS8wt0b5RxUJBg/170UgcxwyEeSyGy4JR2P9fG8zSHIis11HYuj8KIfEvkHHNjmvXgLK7lLL7wMsURu4PYGk0FdnUdV6XU3E95hp6NK/aNGWNFoppXcXQxzEWjgVzD5HnvXEp5lVBZ5SCIaXEYo8DcfmlFBbqjOZ+fufgGqjvec9N2HQiSlP3xAlHag494xYUGqnCOe4DZipKIXo/JQ4+6XgXug4aCq0w+eBLWKrKcm24mivjaouF1BfDoETHLy4UR9Zo4+/kkYj0Wsa95symOTC+0KjWCsXxdTOw4d/2uHZ4I1pIAUfdtqK37krEHzCC7e2OuH/CkXtHmn7/KGRGu+LZh5tYR7VP5uQD8FmlVUaCKRpRqCS7oNOiK0h6FoBmlJG0f/ZCbsRWxNRSoUBOGnbar8LOvcfwJlMCQ8eMh84sYyyZMw4SnNcY0rIbLEMSMWdAc4prFg67uGLwVHWM7zYGW/99jWndG3NHF3Y6vRDffx12DHkDuak+ePblNjpJiCGC6tM6h7Lx/Lo76HF1bkoIFNqb4VLqU/QrltCqVRXKMM6vULy6SCVuqzAkPjmNZl/uo3ubEbAPfw39vvQrWO+hm/h0HM/Ln3pyMR+Fx93suFNPKzTbImvSAbhZjuGOPkJcLbDoanM8ObWOEgAJyFpegSt97vk5NOxsioCUtxgjLYHz20ywKrI94o6t4V4nbR4EzyVjqdEBB7ZTuuPd6J3Ya90G3SWK/BavblkjCvq8r5MOnGJ747G/DQ7v2IWBc5ahJ+WPaiFM6VwXYzwSsWRcKroX1icvAQNb9MeKf95gZq8m3Do4TO+B5JE7sWuJBndai9ejRgvF7H5SkFt8DX+ZDOXWp0goUuDmdAx+SR8wtnUeblDDv8Cop4iPi8LVsFvg9DH+KRQy5qEFQkMnHhW4c8tQ3aNwTeG8PmSbj8anBg1AfUe4R973b1CY+CeennIsVyicdLsjeZQrPJeO5V6TdNkFimsf/6ZC8R4qrf6A9pGSaxR0neUs89co0l9EQU/PABejXqDHcE3M0puHFWY62GbQG/b+z1C/buHmAw4yM+ojiGqHU7otUNQ+pbtskVDIXDfHomutitqD8y+6SMyAf20VimKo3ic+xNkTp+C2/S90Mt6HE2bN0FLOAtfynqBP8UxwzxfiKh5IfB8O2YJ+ft7ZGCujOuCqaRPIUWtNeU9OcZPHLis1WLiHQ6penQJPP5CVmYlDdzlUcq1CduE1C/F4Hb9CYU99Vw+96Yy5moO4ngJ9nCGpsQFhnkup+pYnFIMxVq4Fwj5KoU5BYviR9x2ZChPBeeLPFQBlVzoxy0KMWjNrKWeJqwViQyd6y9BWVEJ34F43xfcbDAfms6STvWeyMm54qFZZKA7YTsL258MR67samUkPscfnBP5LeIFb4VcR+/Q1tl56i6XFhYL6XtbrMQMSDaR+Thvm5mRjkLFzQd15b8saLRTey8djy38D8ej0+lLzo0VJX/KUOaa7PcTaZWYYMnIIOJEHoLHnHe9CcWUBOjcaie1Pv0KrY8V7CoqPKLaZDEZ0h5U4ukaX2wHiT2/C4G2vflOhAGjRbmsTjo2GA39+rcN2WUFzz0dk3PH5+dmXdwkIOOWPbevtMX7zP/jjhjmCms5H4FaTX9IBPeLjRSi63l2NST6ZSL7qkm/j603INzHCpdooFFQy6tdECbbR7zCjJzV0KzgKR9LvqRsf+RZ68P/8GsMK5r3P7dsKuXatMWryVtz9EovuBQu5B221sOejOk5O+1FCKA6tmYIdr4fjtg81YucxiQvjMn6EgpMWgQ4KWpjmsBJyBbMtnJRYrNkVjZg31Cii2f1yRhTK0O7SGMOcH2PllE6/cKCnnngVCvXdqTBTacm14bVSEyd/TMelv5SqKBQ5MBkiCwm9I9i9sDvUuveF9LTVMJg4HEqDlGAxuCFGu5UaUbwNQvO2C3Dx08uffYHfdqrRQpFDNagyNb/dcfY2uNgZQVpKEunJj7DBxhwu1zJw51kUzpr3x5m6BrjptRyc9ESYTVHFqW9qvAtFuDtWTuyM27LmOLd7Oep/T4GJ+lDkTthebLEwH29xoYi/6IxBlgG4eesyejTNgMXkoTiWme+3ug/h73oCjthOwdIzGThzyhcju/+BxLgwGE7XRit9L/jZTYPHkjHwz5mKII8lkPzxBXMGd6RGG5dgKnMdfecfxeUblzGiczPc3LcSGmvvIT7hMpxG8yYUs+Si0LnDZDiERGLuYAUcs5uFWetjEVsbhYLqXBv0+8HnZWfs3e2CUb3k8THhNqxNZ+NdvxXU2pw+5g9vj89qLji6bibex53BgJHWOPXsDrapdoTEjH04ZD8NGdQIcMxwVUzffRtz6weVEIq0qANor7ERJ66HYnwfOcQFbMbweccQ+eIOehRbdK3ufl7aPj9CcXHbfMy/IIXXIX9TMwaFsvcZWp1kILc0gJoSkqGmaiZg36fXGNkkf+opWsEah/43DT7/m4RNMa1x9ewuyEvlYsv8sTj6fTzuHFpdpRHFyz62CPVbB7Gk21AZOhamR+NgOup9Cb/F61p66ulbeiqObFkK890PEPnwDvp+Po8GXRbg5IsETGgrhX8v7ICq1go4XEosGFEU1icbRkPa4YvqVhzZYAjJry8wbfRQdDI/ge0LlKtn6omd7bGghlhxWO+4DgdOXMSXnDyI12sF7bnzYbdmBTpTuwdSYi9hqq4h7rzJQss2PWA1ZxjsPO4h8W0o7JSLJ6Jypp6oxJ6TEodFxibwu3afaq86UNNfBi8Pe8iU2mlYctcTB/7OFjBbewAZPxphknp/XEnt9NsKBT0v7rzKCs77TiDlaw6kmlLbZRfawW3TIjSmBmLpr2NgZDAPF2ISqGdx14WawQrsd/sTf9Tl4KyrDSzsvfDpWx612WwYPKjdS1qDO3DXkHgZUdBLVPeveMNgrg2effyOoVoT8PBYLIJrqVBwMhOxadVKuB86jaTPWajfpDV0TZZjx+ZlFG9qwPX8FubNNaHW816gbrO2WOdxEIunKiHtUSi1zXwRrtx9BUlqd5+JkyucLbXwjtrmXHzqiU5aIQedsGj5diRmfEdD+b7Ytmsv5owpvtlA2DIB7ms46YP3t+OlY4aiLNouu4ytxsNKjArObDbEnP0ZeP34AOzGDsSe8BQcuZ2GDg83QWXORgw334nATdpYZ2GC7b5XkUP57aumjz173dG7dT3uYjavI4rsvnqIDjyDTInmMN+8F5sWjocE0rFYfQD2Un4PU351FQun+agbUmrqSsNq18/fqYlLSmGQujbWb9mKsZRwg4pm17KZWOF+kUpXDTFiqjFavj2NFjpe1IK3EpaMLbKr0eA25puYISDiKSBRD5NN12KvsyW127NqY0Wet8eyJRTC74413yMbI4qaT0U4ERL2wuFclpeqCwV7sRZ6LiEo7IfDdwQ8CwUb22P5rtVvXpAkK/YamLBnjz0RCvbY1+g1Cvaw1GzPJFmx1z6EPXvsRVEo6B/ctZ9gQz36ht6SLLoHEQoRbDuSrNhrNMKePfaiKBTs0RKsZyIUguUpFGskWQkFc5lOCHv22BOhYI89EQr22PPtmSQrvtExLkjYM0bItwEiFHyjY1yQCAVjhMI3QJKV8JkXeiTs2WNPhII99jwLBdkey14jlfZMkhV7bUHYs8eeCAV77HneHkuEgr1GIkJB2NccAuxFQoSCPfY8CwX5HQV7jUSEgrCvOQTYi4QIBXvseZ56Kkso2AubeCYECAFCgBAQJgF7e3vu41Oys7MhJVX0QMriMYiREYUwm6RiX2SenL22IOzZY09GFOyxZzSioMSDvchrsWeSrNhrfMKePfZEKNhjT4SCPfZ8eybJim90jAsS9owR8m2ACAXf6BgXJELBGKHwDZBkJXzmhR4Je/bYE6Fgjz0RCvbY8+2ZJCu+0TEuSNgzRsi3ASIUfKNjXJBnoUhKSuIuSHA4HK5TeXn5ny/WYBwFMVAlAiRZVQmXQC8m7AWKs0rGiFBUCZdAL6aFIj09HTY2NsjLy4OkpGSZ9smuJ4FiZ2aMJCtm/JiUJuyZ0GNWlggFM35MSvM8oiDbY5lgFmxZkqwEy7Mq1gj7qtAS7LVEKATLsyrWiFBUhVYNuZYkK/YagrBnjz0RCvbYE6Fgjz3fnkmy4hsd44KEPWOEfBsgQsE3OsYFa5dQ5GXg9P49iE1MR5chmtDTVII4Y4TCNyCKySrx7hXsPRteBEuqLZavMkYj4eNj5FEU2dMV/vA8GvuOXEK2RCNMmT0ffRSaMOLARmFBCgXn2wf4eXnj2fts9FXRhray4s8qvYq9Ct+AcOSgLlS0DaGsKFdmdWmm3r6BXKbahgugKNfwl+tCjrpCQnEGVHrLlGEjDxHnj+DK7QSIN5SGvpEJOrSsz72OG9++/XiWllVmfH5UfN+48c2h4pP/1e8xym/P6ZTf1gJpqlokFDlYPaU/Ln8biBmq3XHZ1x2tprvCb800gYAUphFRTFaH1kzB1oj6mDaqRz4qIhRC6zKfnwShj5IeNCxt0DbvObbvDYX/7ftQ7dBAaDEIwpHghCIdVhqDEC2lgsmDZeDn7oppO67AfsYAPAncgWEG7jCzMkHj3FS47diHP/1jYDG2S4kqpD+/jkFDqERsugQyWQ/h5vsIwbFRGCBT5+d1CaGe6KdmAeuDd+Fo0BdipSActp2K/134CjM9DWQm3ITr2Ze4FhuNQa2/lYzPww3TtgcXxLeTG9/CpUZokpcG953esD0ZDXMqvkL7JfzqU35LO+ajMXgWClF/zHjeq0DIDrBF2Os76EY9z+rNpe1oaxGK7IRzlC6L1iGKQrFqQjs0mHsRDjOL7txEi3p+tKLI3n+jHjY97Y+YAyu5dXDQ6Y5Xw5yxf/kkkWoCQQlF6o3daDfbHy+fB0FaQgyvqVzQc1U03sX6YrNuD7xX9YCr5Rhu4vXfYACnOEXE+q7mtn3hscdKHSfFZiJouyk3EW83HYrodsvh+6cu93/Op8dQHqYDiQafoWpzAQ6/CMUbjPpDERahSZjVixZsDqzVFfBD1w+2PR+hfWXxWVDxUX5Kx/eLXwEKBb0tds2aNRVvjxV1oSj+jcjNSsXmhTNwMlcd//r+KVJfFtFMVp+hLtcSYn01EBN+DZwmnbF1nw8WaPYn7IVA4PG5TRix7CrC/jmHtjlPMHGUCrTcY7BsfGcheBecC0EJxcVt87H8Vls8OG6Xn/zTI6DQZAaOfX6F4Y1L3n7vtdGAd/p4/LPbqsSd+fwhTdDW6ibs9HpzBSXCayVmnPiBV4F/Udd9h9PMEcic5Aap04aA7nE40Am7QhRZMBwgBwXrEIx458FzfF4F8d3cvbRsv3qCG1HwJBS/y/bY7OiDaKFqhhxOM/zldw42UwYJricLyZLI3dV+CIdCGx38GXAdZmrdERe0AyO1dyDgaQJGtSn7hztCQlllNyLHnr5X/ZYC4zFDcTg6CRI/vkNB2RTRl3ahuYgNpQUlFL5OOvBIVkaYB51c6S5wD93EVeGamIZxskXp/NEVDyjrbMHBW/9ifI/mJfqKTjdxKLsmYsk4Wa4A3PN1gqpnMtJueCD6iC3MTkkgwn8dNULpjh86lQkFB8ed9GBxLAt3757Fjc268KTiu+GxpGAUU158nlR8m3/GF3VkNcz8S/kVoFDQD4F1cHCoXY8Zj7+5D8PH/A8+D19jfKf8BSRROUQxWZVky4Fh/0botDISDtQdmSgdosjeed5gnMiegKtHHCGV+wG2+uMQ02YBrrgsECX03Hch0EfhX36D99+oD+fng/DPHutiiXgM3JNSoS6TLxThfk7QtvDG1tOXMW90t19c6feph0Gb42E9QeGnUIzZlYKE/ToYrLkaJyMi0OsPCTjpdKtYKDiZ8LCaAafgTFwIDsCgNg3hv4mKL6GS+I5S8Znvp+ILwlwqvvSEEChplOGXCEXVuknakwjsD0/FChOtgoIcaHeRwPDtz7FicvuqGWP5alFLVu8fhWFrQDw2rjQq2GWWS83LNkb/DXFYNaUTyzSr5l7U2NO1m0bf/f79mlogzd8d8yJgK7r87zZy4o4KZKGzagT5v1pQQhHjY4vJPhl4G7KTKxS5T/zRRGkLHn6ORHsxDnwd9LH44Av4nT2NcX3K3vFkO7kjMiZ4Y6eZSv5awUYDbIkfgM1KrzFlpRf1eKP8euZkZwKS9aFrdwBHbGeU4M35loTFWhq4/n0gzp7ei05N80fXMQcL4rtSQXyHqPjOFMV3bZc1tFbQfvMdV+SXnxbgeTFb1Keecl9fgXxnfWy/eRsGgxRw75IzRut6IOhlPAb/IVqbZEUtWeW+CUW7zlOx+sItWFJTT1HH7KBmeR5R8XfRoyk/3Za9MqLGnia1zXgI/L6OQyh1l9wAmdQoTgUhTQ3wj5c1eyD58CwooeCkRaFLRy04hURh9kAZuFlqwSdDDVEHVuCqmzlmeT5DyJXz6CNX/kxD1IFV0HJ5hqiw45DJiYfWsJFQc46gbjqLdh/RVSx/RJELe90BCIQWgo+uQ1PJoimv0vG5F8QXScfnXhBfcMXx/fRLRhRV72m3Tu3E/CVOSPiQjRYdlfCX227oqxRs16y6OdZKiGKyijnvCRMzWzyj2XcZhl37DmDSoLasMeTXsSiy53x9jqXz5mL/pWhwxCQxdJIp9nk5o0Nj0bpBEpRQ0G0ffWYnZi90xKsvOeg6XAd+R73QU/oLVGVaI/Rd/oNPC48u2vZ44u8Iv7W6cIrtjcf+DhD7kQ4XK0M4eAUhR7wedKx2wmvdXNQrtWJdUiiSMaqlHHT9ErGgTRha9pqFrFIvf1u4IwieS6mpwbMuVHwOVYqv+K4sIhT8fsN/o3KimKx+F/yEPXstKUihYK8WoumZ56mn32l7rGg2VVHUJFmx14KEPXvsiVCwx54WCp62xxKhYK+RSnsmyYq9tiDs2WNPhII99jwLhagvZrOHWPCeSbISPFNeLRL2vJIS/HVEKATPlFeLPE89EaHgFWn1X0eSVfUzLs8DYc8eeyIU7LEnQsEee749k2TFNzrGBQl7xgj5NkCEgm90jAsSoWCMUPgGSLISPvNCj4Q9e+yJULDHnggFe+z59kySFd/oGBck7Bkj5NsAEQq+0TEuSISCMULhGyDJSvjMyYiCPeaFnolQsNcGPAsF2R7LXiOV9kyEgr22IOzZY0+Egj32PG+PLUso2AubeCYECAFCgBAQJgH6pUV2dnYVv7iIbI8VZpNU7Ivc1bLXFoQ9e+zJiII99jxPPRGhYK+RyNQTYV9zCLAXCREK9tgToWCPPd+eyV0t3+gYFyTsGSPk2wARCr7RMS5IhIIxQuEbIMlK+MwLPRL27LEnQsEeeyIU7LHn2zNJVnyjY1yQsGeMkG8DRCj4Rse4IBEKxgiFb4AkK+EzJyMK9pgXeiZCwV4bEKFgjz3fnolQ8I2OcUHCnjFCvg0QoeAbHeOCPAtFUlIS963dHE7+awLl5eV/vsibcRTEQJUIkGRVJVwCvZiwFyjOKhkjQlElXAK9mBaK9PR02NjYkN9RCJRsNRojyaoa4VZimrBnjz0RCvbY8zyiIL+jYK+RSnsmyYq9tiDs2WNPhII99rVSKHIS72JP+GdYzlRhjzwDz6KYrBLvXsHes+FFtZZqi+WrjNGIAQc2iooie5rT2wc3cPB0KPLqt4S+8Xx0aFGPDXyMfApSKPIy3mL/noNITM/DEE19aCp1+CW24CM70VrdCr1lyg77w/NoePsGIluiEbQNF0BRrmHBhRxEB/ohMPIZGsn3xQmLVAAAAAosSURBVAIjbTSUKMtGHiLOH8GV2wkQbygNfSMTdGhZn3sh59sH+O3bj2dpWeirog1tZcWfBl7FXoVfQDi+oS5UtOdAWVH+F+Mhx1wh0XM6VHq3ZsS8sHCtE4ovL6KhO3kSXnRZhKenHAUCUdhGRDFZHVozBVsj6mPaqB75uIhQCK3bPA78G0N0N2CO9WK0znsFN59bOB0RiWFtpYQWgyAcCUwochIxdcAAZA+YC9XuUvB1d8X0v6/iT51+EOMGmocz2xZBb+VeeN3hwKBv/qfFj/Tn1zFoCJWITZdAJush3HwfITg2CgNk6iBwpykMdz/GkrmT8CriDEIylHA/2AUNxEraOWw7Ff+78BVmehrITLgJ17MvcS02GoNaf4OVxiBES6lg8mAZ+Hm4Ydr2YNjPGIAngTsxzMAdC5caoUleGtx3esP2ZDTMx3YpiB1ICPVEPzULWB+8C0f9vijllq+mqFVCcff8dmjqr0NXxXZIkZ1KhIKvLsNfoVUT2qHB3ItwmFl0Z8SfJXZLiaJIL1aRQbaWD/baaHLhHVmjDe+vmghxWcguzCp6F5RQvKKS7cA/Y/Ay5hA3eV/asQCW16QRf3Y9lVSTYaqshsuZ0sDDG9gYUbZQ7LFSx0mxmQjabspNxNtNhyK63XL4/qmJ6T3lob47HguVpSGWewed66ri75efMEGhuFC8wag/FGERmoRZvRpQJDiwVlfAD10/2PZ8hPaz/fHyeRCkJcTw+tJ29FwVjXexvtis2wPvVT3gajGG69d/gwGc4hQR67ua+l8MnE+PoTxMBxINPkPV5gIciFBUsZdRlz+MDEGd9kPx4uhyWFyXIUJRdYR8lvgMdbmWEOurgZjwa+A06Yyt+3ywQLM/n/bYKyaKQjFDsQ6GOifAZrwCF9ytfSuh6fUJHyP2/LwLZY8o754FJRTFPWalPoXZzMn4rrYJR2ynUcn2Hc4H/IfxkztApaUcFl3Ng34ZI4r5Q5qgrdVN2On15jKM8FqJGSd+4FXgX9yEzT3yviNo7wrobY5D7LNgKNT5dWRSFEsWDAfIQcE6BCPeeWD5rbZ4cNwu31Z6BBSazMCxz68wvHFJG142GvBOH4+bu5dS136H08wRyJzkBqnThoDucTjoCXlE8Tu9jyLYZRERCt6/n8yv/BAOhTY6+DPgOszUuiMuaAdGau9AwNMEjGojydy+EC2IolC4LlKGd9IwXDu5CY1zU2GqMQz7k/qB8+SUQKYlhIVf0EIRfdAOYxY5I69pF/ieDcBUpXbFqpKMURUIhU43cSi7JmLJOFmuUNzzdYKqZzLSbngUCMVLjGqliFvvc6C9ag8ObZiHeuXqBAfHnfRgcSwLd++exY3NuvBMVsYNjyUFtu6hm7gqXBPTME62yMijK55Q1tmMg7f+xfgezRF1ZDXM/CUQ4b+OGnl0xw8dwQpFXl4e6EeN038lJcv+3ooRoRDW16FyP6KYrErWigPD/o3QaWUkdcfTu/IK16ArRJE952sCLPQNsD/4LprJK2Kp7gBsoO6Uv0Z71/oRBT3lc3PfKqitvoG4l7fQWaowEVcsFPp96mHQ5nhYT1D4KRRjdqUg9bp70YiC6rcZb+9h4qiRGGJ/BZvnDv6VNycTHlYz4BSciQvBARjUpiH8N+nDOWEQ/tljXUwoxsA9KRXqMvnxhR91grb5fmw9HYS5o7shPSEEShqrcTIiAr3+kICTTjd2hOJ32h5LRhTCzbzvH4Vha0A8Nq40gjjXdS41L9sY/TfEYdWUTsINhqE3URSK0lW+4GwMh7geiDmwgiEN4RYX1IjiScQ5hKe2hInWiPwKcP5FV8mRcP7vK7Q68CYUtpM7ImOCN3aaqeSvFWw0wJb4AYh0mw63v89h2jILyBdMNf29aCQCmxjjwmbjEiM4zrckLNbSwPXvA3H29F50app/lx5z0BaTfTLw9spOrlDkPvFHE6UtePg5Eu3FOPB10MfiQy/gd+Y0xvWR45a5tssaWiu8fv4IOic7E5CsD127A9SU2gzGI8datZhd2K2JUAj3C577JhTtOk/F6gu3YElNPUUds4Oa5XlExd9Fj6bCjYWpN1EUir3W43A4fQKu7rVC9usYjBmuDoP9d7FE/dctoUz5VGd5QQnF6yuu6GKwD2HR4VCidn5d2maG6e5v8fzZee7icf5R8Ygi6sAqaLk8Q1TYccjkxENr2EioOUdgxWRp6PZoixamJ7DLWgOf/7sJjdEamLnnLpZNLNqZRN8s2VMju0BoIfjoOjSVLJpS4qRFoUtHLTiFRGH2QBm4W2rBJ0MNkZSwX3U3xyzPZwgJPo8+cvlbacs6qmNEQQ0W4ODggOzsbEhJlb1jToyMKKrzK1A126KYrGLOe8LEzBbPPmSjRZdh2LXvACYNalu1iteAq0WRfU7KfczTm40zEc8gXr8FLLZ4YdMCzYLRXQ2AymMIghIKerrp1E4rLF3rjfdZHHRU0oTrrt1Q7UntdPp5/CoUvk46cIrtjcf+DhD7kQ4XK0M4eAUhR7wedKx2wmvdXO46REpcCIyMFyI07i3qNJLFQsed2LRoMiSoHVX0uoeuXyIWtAlDy16zkEUl3+LHwh1B8Fw6DjFnXTB7oQNefclB1+E68DvqhZ7SX6Aq0xqh7/Ifo1R4dNG2xxN/xxJTXkQoeOxUv/Nlopisfpf2IOzZa0nBCQV7dRBVz7Vy6klUG6swbpKs2GtBwp499kQo2GNPhII99nx7JsmKb3SMCxL2jBHybYAIBd/oGBfkWSh+p+2xjKmxbIAkK/YagLBnjz0RCvbY00JR635HwR5uwXgmyUowHPmxQtjzQ00wZYhQCIYjP1Z4ForfadcTP6BqUhmSrNhrDcKePfZEKNhjz/PUExEK9hqptGeSrNhrC8KePfZEKNhjT4SCPfZ8eybJim90jAsS9owR8m2ACAXf6BgXJELBGKHwDZBkJXzmhR4Je/bYE6Fgjz0RCvbY8+2ZJCu+0TEuSNgzRsi3ASIUfKNjXJCRUDD2TgwQAoQAIUAIiAQBe3t70GJd4bOeSv+OQlw8/zmgpQ8OJ/85JPyep8umpqZCWrr4c1eKvDC1X1l54p/wZ9L/6P6Tm5tb7vP6eTlfkX9eyhP/hH9574vgpf8w6X+/vI+CXyEgibpiISVCJdpCxcsXsbJEzuSLSvwToa6sf1V2nkn/++XpsXXq1ClzRPH9+3fu5/yep8smJyejdevW1WK/sviIf8KfSf+j+09WVla5j2Hm5XxF/nkpT/wT/uU9BpyX/sOk/xGhKJCtyoSG6XkiVKItVLx8EStL5Ey+qMQ/EerK+ldl55n0PyIURCi4BJgKYWXlRV0oSaImibqyRFzZeSaJmu3+R4SCCAURCh6Eku0vKvFPhKoyIarsPBOhIkJBhIIIBREKbh+oLNEwPc8kUQkiPuK//DXiyvgSoSBCQYSCCAURCiKUFd4oEKEgQkGEgggFEQoiFBUKxf8BmxEDn8hQeXcAAAAASUVORK5CYII=;" parent="1" vertex="1">
          <mxGeometry x="528" y="3341.58" width="394" height="106" as="geometry" />
        </mxCell>
        <mxCell id="4Ed66H_ixb7A9p733Kqp-166" value="" style="rounded=0;whiteSpace=wrap;html=1;" parent="1" vertex="1">
          <mxGeometry x="692" y="3240.94" width="385" height="60" as="geometry" />
        </mxCell>
        <mxCell id="4Ed66H_ixb7A9p733Kqp-167" value="User Id" style="rounded=0;whiteSpace=wrap;html=1;" parent="1" vertex="1">
          <mxGeometry x="692" y="3240.94" width="95" height="30" as="geometry" />
        </mxCell>
        <mxCell id="4Ed66H_ixb7A9p733Kqp-168" value="Password" style="rounded=0;whiteSpace=wrap;html=1;" parent="1" vertex="1">
          <mxGeometry x="882" y="3240.94" width="95" height="30" as="geometry" />
        </mxCell>
        <mxCell id="4Ed66H_ixb7A9p733Kqp-169" value="User Name" style="rounded=0;whiteSpace=wrap;html=1;" parent="1" vertex="1">
          <mxGeometry x="787" y="3240.94" width="95" height="30" as="geometry" />
        </mxCell>
        <mxCell id="4Ed66H_ixb7A9p733Kqp-170" value="Date-Joined" style="rounded=0;whiteSpace=wrap;html=1;" parent="1" vertex="1">
          <mxGeometry x="977" y="3240.94" width="100" height="30" as="geometry" />
        </mxCell>
        <mxCell id="4Ed66H_ixb7A9p733Kqp-171" value="5" style="rounded=0;whiteSpace=wrap;html=1;" parent="1" vertex="1">
          <mxGeometry x="692" y="3270.94" width="95" height="30" as="geometry" />
        </mxCell>
        <mxCell id="4Ed66H_ixb7A9p733Kqp-172" value="Arun" style="rounded=0;whiteSpace=wrap;html=1;" parent="1" vertex="1">
          <mxGeometry x="787" y="3270.94" width="95" height="30" as="geometry" />
        </mxCell>
        <mxCell id="4Ed66H_ixb7A9p733Kqp-173" value="&lt;pre&gt;&lt;code class=&quot;!whitespace-pre hljs language-perl&quot;&gt;$2&lt;span class=&quot;hljs-keyword&quot;&gt;y&lt;/span&gt;$1&lt;span class=&quot;hljs-number&quot;&gt;0&lt;/span&gt;$od4/W8&lt;/code&gt;&lt;/pre&gt;" style="rounded=0;whiteSpace=wrap;html=1;" parent="1" vertex="1">
          <mxGeometry x="882" y="3270.94" width="95" height="30" as="geometry" />
        </mxCell>
        <mxCell id="4Ed66H_ixb7A9p733Kqp-174" value="23.02.2024" style="rounded=0;whiteSpace=wrap;html=1;" parent="1" vertex="1">
          <mxGeometry x="977" y="3270.94" width="100" height="30" as="geometry" />
        </mxCell>
        <mxCell id="4Ed66H_ixb7A9p733Kqp-178" value="Json_encode(data transfer)" style="text;html=1;align=center;verticalAlign=middle;whiteSpace=wrap;rounded=0;" parent="1" vertex="1">
          <mxGeometry x="411" y="2840" width="139" height="30" as="geometry" />
        </mxCell>
        <mxCell id="7I7FSgPWb7zvWcSzZrZ3-5" style="edgeStyle=orthogonalEdgeStyle;rounded=0;orthogonalLoop=1;jettySize=auto;html=1;exitX=0;exitY=0.5;exitDx=0;exitDy=0;" edge="1" parent="1" source="7I7FSgPWb7zvWcSzZrZ3-1" target="7I7FSgPWb7zvWcSzZrZ3-2">
          <mxGeometry relative="1" as="geometry" />
        </mxCell>
        <mxCell id="7I7FSgPWb7zvWcSzZrZ3-1" value="Create a new Question" style="rounded=0;whiteSpace=wrap;html=1;" vertex="1" parent="1">
          <mxGeometry x="488" y="2610" width="104" height="32" as="geometry" />
        </mxCell>
        <mxCell id="7I7FSgPWb7zvWcSzZrZ3-8" style="edgeStyle=orthogonalEdgeStyle;rounded=0;orthogonalLoop=1;jettySize=auto;html=1;exitX=0.5;exitY=1;exitDx=0;exitDy=0;entryX=0.5;entryY=0;entryDx=0;entryDy=0;" edge="1" parent="1" source="7I7FSgPWb7zvWcSzZrZ3-2" target="7I7FSgPWb7zvWcSzZrZ3-6">
          <mxGeometry relative="1" as="geometry" />
        </mxCell>
        <mxCell id="7I7FSgPWb7zvWcSzZrZ3-2" value="JSME tool dispayed inside the browser itself" style="rounded=0;whiteSpace=wrap;html=1;" vertex="1" parent="1">
          <mxGeometry x="310" y="2600" width="120" height="60" as="geometry" />
        </mxCell>
        <mxCell id="7I7FSgPWb7zvWcSzZrZ3-6" value="Drawn image is converted to a string" style="rounded=0;whiteSpace=wrap;html=1;" vertex="1" parent="1">
          <mxGeometry x="309" y="2712" width="122" height="48" as="geometry" />
        </mxCell>
        <mxCell id="7I7FSgPWb7zvWcSzZrZ3-10" style="edgeStyle=orthogonalEdgeStyle;rounded=0;orthogonalLoop=1;jettySize=auto;html=1;exitX=0.25;exitY=1;exitDx=0;exitDy=0;" edge="1" parent="1" source="7I7FSgPWb7zvWcSzZrZ3-9" target="4Ed66H_ixb7A9p733Kqp-98">
          <mxGeometry relative="1" as="geometry" />
        </mxCell>
        <mxCell id="7I7FSgPWb7zvWcSzZrZ3-9" value="Create a new Question" style="rounded=0;whiteSpace=wrap;html=1;" vertex="1" parent="1">
          <mxGeometry x="314" y="2940" width="104" height="32" as="geometry" />
        </mxCell>
        <mxCell id="7I7FSgPWb7zvWcSzZrZ3-11" value="INSERT query to write the new question to the database" style="text;html=1;align=center;verticalAlign=middle;whiteSpace=wrap;rounded=0;" vertex="1" parent="1">
          <mxGeometry x="180" y="3050" width="150" height="50" as="geometry" />
        </mxCell>
        <mxCell id="7I7FSgPWb7zvWcSzZrZ3-12" style="edgeStyle=orthogonalEdgeStyle;rounded=0;orthogonalLoop=1;jettySize=auto;html=1;exitX=0.5;exitY=1;exitDx=0;exitDy=0;" edge="1" parent="1" source="4Ed66H_ixb7A9p733Kqp-58" target="4Ed66H_ixb7A9p733Kqp-58">
          <mxGeometry relative="1" as="geometry" />
        </mxCell>
        <mxCell id="7I7FSgPWb7zvWcSzZrZ3-21" style="edgeStyle=orthogonalEdgeStyle;rounded=0;orthogonalLoop=1;jettySize=auto;html=1;exitX=1;exitY=0.5;exitDx=0;exitDy=0;entryX=0.458;entryY=0.007;entryDx=0;entryDy=0;entryPerimeter=0;" edge="1" parent="1" source="4Ed66H_ixb7A9p733Kqp-146" target="4Ed66H_ixb7A9p733Kqp-65">
          <mxGeometry relative="1" as="geometry">
            <Array as="points">
              <mxPoint x="670" y="2676" />
              <mxPoint x="670" y="2810" />
              <mxPoint x="558" y="2810" />
            </Array>
          </mxGeometry>
        </mxCell>
        <mxCell id="7I7FSgPWb7zvWcSzZrZ3-25" style="edgeStyle=orthogonalEdgeStyle;rounded=0;orthogonalLoop=1;jettySize=auto;html=1;exitX=0.5;exitY=1;exitDx=0;exitDy=0;entryX=0.202;entryY=-0.002;entryDx=0;entryDy=0;entryPerimeter=0;" edge="1" parent="1" source="7I7FSgPWb7zvWcSzZrZ3-6" target="4Ed66H_ixb7A9p733Kqp-65">
          <mxGeometry relative="1" as="geometry" />
        </mxCell>
        <mxCell id="7I7FSgPWb7zvWcSzZrZ3-27" style="edgeStyle=orthogonalEdgeStyle;rounded=0;orthogonalLoop=1;jettySize=auto;html=1;exitX=0.5;exitY=1;exitDx=0;exitDy=0;entryX=0.327;entryY=0.011;entryDx=0;entryDy=0;entryPerimeter=0;" edge="1" parent="1" source="4Ed66H_ixb7A9p733Kqp-149" target="4Ed66H_ixb7A9p733Kqp-152">
          <mxGeometry relative="1" as="geometry" />
        </mxCell>
        <mxCell id="7I7FSgPWb7zvWcSzZrZ3-28" style="edgeStyle=orthogonalEdgeStyle;rounded=0;orthogonalLoop=1;jettySize=auto;html=1;exitX=0.75;exitY=1;exitDx=0;exitDy=0;entryX=0.416;entryY=-0.004;entryDx=0;entryDy=0;entryPerimeter=0;startArrow=classic;startFill=1;endArrow=none;endFill=0;" edge="1" parent="1" source="4Ed66H_ixb7A9p733Kqp-149" target="4Ed66H_ixb7A9p733Kqp-152">
          <mxGeometry relative="1" as="geometry" />
        </mxCell>
        <mxCell id="7I7FSgPWb7zvWcSzZrZ3-30" style="edgeStyle=orthogonalEdgeStyle;rounded=0;orthogonalLoop=1;jettySize=auto;html=1;exitX=0.75;exitY=1;exitDx=0;exitDy=0;entryX=0.922;entryY=-0.004;entryDx=0;entryDy=0;entryPerimeter=0;endArrow=none;endFill=0;startArrow=classic;startFill=1;" edge="1" parent="1" source="4Ed66H_ixb7A9p733Kqp-150" target="4Ed66H_ixb7A9p733Kqp-152">
          <mxGeometry relative="1" as="geometry" />
        </mxCell>
        <mxCell id="7I7FSgPWb7zvWcSzZrZ3-35" value="UPDATE query" style="text;html=1;align=center;verticalAlign=middle;whiteSpace=wrap;rounded=0;" vertex="1" parent="1">
          <mxGeometry x="360" y="3040" width="150" height="30" as="geometry" />
        </mxCell>
        <mxCell id="7I7FSgPWb7zvWcSzZrZ3-39" value="UPDATE query" style="text;html=1;align=center;verticalAlign=middle;whiteSpace=wrap;rounded=0;" vertex="1" parent="1">
          <mxGeometry x="514.5" y="3040" width="150" height="30" as="geometry" />
        </mxCell>
        <mxCell id="7I7FSgPWb7zvWcSzZrZ3-40" value="UPDATE query" style="text;html=1;align=center;verticalAlign=middle;whiteSpace=wrap;rounded=0;" vertex="1" parent="1">
          <mxGeometry x="810" y="3050" width="150" height="30" as="geometry" />
        </mxCell>
        <mxCell id="7I7FSgPWb7zvWcSzZrZ3-42" value="SCORES table" style="text;html=1;align=center;verticalAlign=middle;whiteSpace=wrap;rounded=0;" vertex="1" parent="1">
          <mxGeometry x="918" y="3360" width="120" height="30" as="geometry" />
        </mxCell>
        <mxCell id="7I7FSgPWb7zvWcSzZrZ3-43" value="USERS table" style="text;html=1;align=center;verticalAlign=middle;whiteSpace=wrap;rounded=0;" vertex="1" parent="1">
          <mxGeometry x="922" y="3190" width="120" height="30" as="geometry" />
        </mxCell>
      </root>
    </mxGraphModel>
  </diagram>
</mxfile>
